<?xml version="1.0" encoding="UTF-8"?>
<svg id="Layer_1" data-name="Layer 1" xmlns="http://www.w3.org/2000/svg" viewBox="0 0 512 512">
  <defs>
    <style>
      .cls-1, .cls-2 {
        fill: none;
      }

      .cls-3 {
        fill: #0072f7;
      }

      .cls-4 {
        fill: #ffea00;
      }

      .cls-5 {
        fill: #9bdcff;
      }

      .cls-6 {
        fill: #fff;
      }

      .cls-6, .cls-2 {
        stroke: #003021;
        stroke-linecap: round;
        stroke-linejoin: round;
        stroke-width: 9px;
      }
    </style>
  </defs>
  <g>
    <path class="cls-3" d="M225.6,128.07v100.35H92.23c-10.76,0-18.59-9.77-16.76-19.96,.15-.82,.36-1.64,.63-2.46l9.59-28.61c9.87-29.47,37.45-49.32,68.52-49.32h71.39Z"/>
    <path class="cls-5" d="M133.28,400.28v14.11c0,7.41-6.02,13.47-13.47,13.47H50.34c-7.45,0-13.47-6.06-13.47-13.47v-14.11h96.41Z"/>
  </g>
  <path class="cls-5" d="M149.77,345.85h75.83v-117.43H92.23c-10.76,0-18.59-9.77-16.76-19.96h-18.75c-5.78,0-11.28,1.87-15.75,5.1-4.46,3.23-7.97,7.85-9.8,13.35-2.83,8.57,3.71,17.34,12.75,17.1l13.32-.4c-11.16,8.68-26.71,25.7-26.71,53.13v26.14c0,2.08-1.67,3.75-3.75,3.75h-.03c-2.08,0-3.75,1.67-3.75,3.75v56.03c0,3.84,1.56,7.3,4.07,9.81s5.97,4.06,9.8,4.06H225.6v-32.65h-75.83c-2.75,0-4.97-2.22-4.97-4.96v-11.84c0-2.75,2.22-4.98,4.97-4.98Zm-44.35,18.6c-1.97,1.97-4.69,3.19-7.7,3.19h-18.25c-6.02,0-10.89-4.88-10.89-10.89,0-3.01,1.22-5.73,3.19-7.7s4.69-3.19,7.7-3.19h18.25c6.02,0,10.89,4.87,10.89,10.89,0,3-1.22,5.73-3.19,7.7Zm19.91-57.14h-59.77c-6.92,0-12.53-5.61-12.53-12.53v-10.47c0-6.92,5.61-12.53,12.53-12.53h7.47c14.18,0,28.03,4.31,39.7,12.35l16.31,11.25c5.29,3.65,2.71,11.93-3.71,11.93Z"/>
  <path class="cls-3" d="M108.61,356.75c0,3-1.22,5.73-3.19,7.7-1.97,1.97-4.69,3.19-7.7,3.19h-18.25c-6.02,0-10.89-4.88-10.89-10.89,0-3.01,1.22-5.73,3.19-7.7s4.69-3.19,7.7-3.19h18.25c6.02,0,10.89,4.87,10.89,10.89Z"/>
  <path class="cls-3" d="M125.33,307.31h-59.77c-6.92,0-12.53-5.61-12.53-12.53v-10.47c0-6.92,5.61-12.53,12.53-12.53h7.47c14.18,0,28.03,4.31,39.7,12.35l16.31,11.25c5.29,3.65,2.71,11.93-3.71,11.93Z"/>
  <polygon class="cls-4" points="489 118.95 489 436.99 225.6 436.99 225.6 118.95 296.97 118.95 296.97 146.13 417.63 146.13 417.63 118.95 489 118.95"/>
  <path class="cls-3" d="M225.6,345.85v21.78h-75.83c-2.75,0-4.97-2.22-4.97-4.96v-11.84c0-2.75,2.22-4.98,4.97-4.98h75.83Z"/>
  <path class="cls-5" d="M391.42,92.07c0-18.85-15.28-34.12-34.12-34.12s-34.11,15.27-34.11,34.12h-26.22v54.06h120.66v-54.06h-26.21Zm-34.12,7.46c-4.94,0-8.95-4.01-8.95-8.95s4.01-8.96,8.95-8.96,8.96,4.01,8.96,8.96-4.01,8.95-8.96,8.95Z"/>
  <path class="cls-1" d="M366.26,90.58c0,4.94-4.01,8.95-8.96,8.95s-8.95-4.01-8.95-8.95,4.01-8.96,8.95-8.96,8.96,4.01,8.96,8.96Z"/>
  <g>
    <g>
      <polyline class="cls-2" points="263.89 193.85 275.82 205.78 299.69 181.92"/>
      <line class="cls-6" x1="337.23" y1="181.92" x2="395.28" y2="181.92"/>
      <line class="cls-2" x1="337.23" y1="205.78" x2="444.46" y2="205.78"/>
    </g>
    <g>
      <polyline class="cls-2" points="263.89 276.85 275.82 288.79 299.69 264.92"/>
      <line class="cls-2" x1="337.23" y1="264.92" x2="395.28" y2="264.92"/>
      <line class="cls-2" x1="337.23" y1="288.79" x2="444.46" y2="288.79"/>
    </g>
    <g>
      <polyline class="cls-2" points="263.89 359.85 275.82 371.79 299.69 347.92"/>
      <line class="cls-2" x1="337.23" y1="347.92" x2="395.28" y2="347.92"/>
      <line class="cls-2" x1="337.23" y1="371.79" x2="444.46" y2="371.79"/>
    </g>
  </g>
</svg>