<?xml version="1.0" encoding="UTF-8"?>
<svg id="Layer_1" data-name="Layer 1" xmlns="http://www.w3.org/2000/svg" xmlns:xlink="http://www.w3.org/1999/xlink" viewBox="0 0 512 512">
  <defs>
    <style>
      .cls-1, .cls-2 {
        fill: none;
      }

      .cls-3 {
        clip-path: url(#clippath);
      }

      .cls-4 {
        fill: #ffea00;
      }

      .cls-5 {
        fill: #9bdcff;
      }

      .cls-6 {
        fill: #00c658;
      }

      .cls-6, .cls-2 {
        stroke: #003021;
        stroke-linecap: round;
        stroke-linejoin: round;
        stroke-width: 9px;
      }
    </style>
    <clipPath id="clippath">
      <circle class="cls-1" cx="262.81" cy="262.72" r="195.98"/>
    </clipPath>
  </defs>
  <g>
    <circle class="cls-5" cx="262.81" cy="262.72" r="195.98"/>
    <path class="cls-2" d="M36.33,262.72c0-125.08,101.4-226.48,226.48-226.48s226.48,101.4,226.48,226.48"/>
    <circle class="cls-6" cx="262.81" cy="302.75" r="21.84"/>
    <line class="cls-2" x1="297.67" y1="335.59" x2="278.71" y2="317.72"/>
    <line class="cls-2" x1="246.93" y1="287.76" x2="145.62" y2="192.27"/>
    <rect class="cls-4" x="194.27" y="390.52" width="137.08" height="25.24" rx="12.62" ry="12.62"/>
    <g class="cls-3">
      <g>
        <line class="cls-2" x1="262.81" y1="94.82" x2="262.81" y2="66.56"/>
        <line class="cls-2" x1="315.82" y1="103.41" x2="324.75" y2="76.6"/>
        <line class="cls-2" x1="363.42" y1="128.3" x2="380.35" y2="105.68"/>
        <line class="cls-2" x1="400.71" y1="166.95" x2="423.92" y2="150.83"/>
        <line class="cls-2" x1="423.9" y1="215.39" x2="451.01" y2="207.42"/>
        <line class="cls-2" x1="213.46" y1="103.41" x2="204.54" y2="76.6"/>
        <line class="cls-2" x1="165.87" y1="128.3" x2="148.94" y2="105.68"/>
        <line class="cls-2" x1="128.58" y1="166.95" x2="105.37" y2="150.83"/>
        <line class="cls-2" x1="105.39" y1="215.39" x2="78.28" y2="207.42"/>
      </g>
    </g>
  </g>
  <polyline class="cls-2" points="22.71 258.16 36.33 272.62 49.65 257.72"/>
</svg>