<?xml version="1.0" encoding="UTF-8"?>
<svg id="Layer_1" data-name="Layer 1" xmlns="http://www.w3.org/2000/svg" viewBox="0 0 512 512">
  <defs>
    <style>
      .cls-1 {
        fill: #0072f7;
      }

      .cls-2 {
        fill: #ffea00;
      }

      .cls-3 {
        fill: #9bdcff;
      }

      .cls-4 {
        fill: none;
        stroke: #003021;
        stroke-linecap: round;
        stroke-linejoin: round;
        stroke-width: 9px;
      }
    </style>
  </defs>
  <path class="cls-1" d="M117.32,42.05V111.83h-36.06c-3.46,0-6.26-2.82-6.26-6.28V48.31c0-3.46,2.8-6.26,6.26-6.26h36.06Z"/>
  <path class="cls-1" d="M117.32,383.12v69.78h-36.05c-3.46,0-6.26-2.82-6.26-6.28v-57.24c0-3.46,2.8-6.26,6.26-6.26h36.05Z"/>
  <path class="cls-1" d="M423.39,389.38v57.24c0,3.46-2.8,6.28-6.26,6.28h-36.05v-69.78h36.05c3.46,0,6.26,2.8,6.26,6.26Z"/>
  <path class="cls-2" d="M281.89,367.32c-21.66,23.86-15.55,41.56-15.55,41.56h.13s1.53,.12,1.53,.12c11.86,10.58,40.68-6.98,46.38-10.63,.54-.35,.65-1.08,.26-1.58l-4.74-6.1c-.57-.74-.01-1.81,.92-1.75l15.81,.89c.25,.02,.51-.06,.72-.22l53.72-40.95v104.24H117.32V42.05H381.07v235.89l-40.58,29.65c-.18,.13-.31,.31-.39,.52l-11.6,28.96c-.35,1.02-1.81,.96-2.08-.08l-4.06-11.53c-.22-.84-1.28-1.1-1.86-.46l-38.61,42.32Z"/>
  <path class="cls-2" d="M381.07,331.52v5l-2.33-3.03c-.51-.66-.12-1.62,.71-1.74l1.62-.23Z"/>
  <g>
    <rect class="cls-1" x="152.26" y="80.48" width="65.93" height="77.09"/>
    <rect class="cls-1" x="280.21" y="80.48" width="65.93" height="77.09"/>
  </g>
  <path class="cls-3" d="M75.01,55.51v42.85h-27.95c-8.85,0-16.03-7.18-16.03-16.03v-10.8c0-8.87,7.18-16.03,16.03-16.03h27.95Z"/>
  <path class="cls-1" d="M423.39,48.31v57.24c0,3.46-2.8,6.28-6.26,6.28h-36.05V42.05h36.05c3.46,0,6.26,2.8,6.26,6.26Z"/>
  <path class="cls-3" d="M465.16,71.54v10.8c0,8.85-7.18,16.03-16.02,16.03h-25.75V55.51h25.75c8.84,0,16.02,7.16,16.02,16.03Z"/>
  <path class="cls-3" d="M75.01,396.58v42.86h-25.75c-8.84,0-16.02-7.18-16.02-16.03v-10.8c0-8.87,7.18-16.03,16.02-16.03h25.75Z"/>
  <path class="cls-3" d="M465.16,412.61v10.8c0,8.85-7.18,16.03-16.02,16.03h-25.75v-42.86h25.75c8.84,0,16.02,7.16,16.02,16.03Z"/>
  <g>
    <path class="cls-3" d="M424.38,303.61l-20.31,24.39c-.17,.2-.42,.34-.68,.38l-22.32,3.14-1.62,.23c-.83,.12-1.22,1.08-.71,1.74l2.33,3.03,5.22,6.78c.37,.48,.28,1.17-.2,1.53l-5.02,3.82h0s-53.72,40.96-53.72,40.96c-.21,.16-.47,.24-.72,.22l-15.81-.89c-.93-.06-1.49,1.01-.92,1.75l4.74,6.1c.39,.5,.28,1.23-.26,1.58-5.7,3.65-34.52,21.21-46.38,10.63l-1.53-.11h-.13s-6.11-17.71,15.55-41.57l38.61-42.32c.58-.64,1.64-.38,1.86,.46l4.06,11.53c.27,1.04,1.73,1.1,2.08,.08l11.6-28.96c.08-.21,.21-.39,.39-.52l40.58-29.65,6.16-4.5c.38-.28,.9-.28,1.28,0l5.9,4.31c.54,.39,1.29,.23,1.6-.35,2.91-5.48,17.38-29.06,46.97-21.96,.24,.06,.45,.18,.6,.37,1.66,2.06,10.13,15.54-19.2,47.8Z"/>
    <line class="cls-4" x1="238.31" y1="432.96" x2="352.78" y2="335.11"/>
  </g>
  <g>
    <line class="cls-4" x1="154.75" y1="212.93" x2="232.19" y2="212.93"/>
    <line class="cls-4" x1="154.75" y1="254.12" x2="280.21" y2="254.12"/>
    <line class="cls-4" x1="154.75" y1="295.31" x2="302.85" y2="295.31"/>
    <line class="cls-4" x1="154.75" y1="336.49" x2="243.07" y2="336.49"/>
    <line class="cls-4" x1="154.75" y1="374.88" x2="198.91" y2="374.88"/>
  </g>
</svg>