<?xml version="1.0" encoding="UTF-8"?>
<svg id="Layer_1" data-name="Layer 1" xmlns="http://www.w3.org/2000/svg" viewBox="0 0 512 512">
  <defs>
    <style>
      .cls-1, .cls-2 {
        fill: #0072f7;
      }

      .cls-3 {
        fill: #9bdcff;
      }

      .cls-4 {
        fill: #90cded;
      }

      .cls-2, .cls-5 {
        stroke: #003021;
        stroke-linecap: round;
        stroke-linejoin: round;
        stroke-width: 9px;
      }

      .cls-5 {
        fill: none;
      }
    </style>
  </defs>
  <path class="cls-5" d="M45.22,178.61l2.52-1.11c7.36-3.26,15.85-2.71,22.73,1.48l53.44,32.58,.37,.23-.44-.19h-.01"/>
  <path class="cls-1" d="M481.39,292.49l-62.2,10.95h-.04l-29.73,.07-27.87,.07-29.72,.07-184.66,.45-30.07,.07-26.87,.07-30.06,.07H27.58c-5.12,0-8.91-4.73-7.82-9.74,4.31-19.86,7.5-57.9,30.39-67.77,0,0,30.62-12.2,72.71-14.59l82.89-3.35,254.35-10.28c16.74-.24,27.26,8.37,29.17,26.55l3.14,53.42c.39,6.77-4.34,12.76-11.02,13.94Z"/>
  <path class="cls-2" d="M148.45,285.16h138.48c13.39,.48,25.35-9.83,29.9-21.9,7.18-13.98,36.59-47.22,90.89-26.89"/>
  <path class="cls-4" d="M229.41,184.45c4.92-17.29-20.22-21.94-24.59-22.61,.64-.18,1.29-.32,1.96-.39,13.73-1.52,78.49-8.15,115.55-2.57,44.49,6.69,72.23,31.57,137.77,39.7l-254.35,10.28s18.28-5.5,23.66-24.41Z"/>
  <polygon class="cls-3" points="124.28 211.79 123.84 211.6 123.91 211.56 124.28 211.79"/>
  <path class="cls-3" d="M229.41,184.45c-5.38,18.91-23.66,24.41-23.66,24.41l-82.89,3.35,.97-.61h.01l.44,.19-.37-.23,78.07-48.45c.7-.43,1.44-.79,2.21-1.06,.21-.08,.42-.15,.63-.21,4.37,.67,29.51,5.32,24.59,22.61Z"/>
  <path class="cls-3" d="M204.82,161.84c-.21,.06-.42,.13-.63,.21v-.3s.22,.03,.63,.09Z"/>
  <line class="cls-5" x1="212.31" y1="228.72" x2="230.05" y2="228.72"/>
  <g>
    <path class="cls-3" d="M135.32,261.78h-.01c-8.09-8.11-19.28-13.13-31.66-13.13s-23.57,5.02-31.66,13.13h-.01c-8.11,8.09-13.13,19.3-13.13,31.68s5.02,23.57,13.13,31.68c8.09,8.11,19.3,13.13,31.68,13.13s23.58-5.02,31.68-13.13c8.11-8.11,13.13-19.31,13.13-31.68s-5.02-23.58-13.13-31.68Z"/>
    <path class="cls-1" d="M120.86,293.46c0,4.74-1.93,9.05-5.04,12.16-3.1,3.12-7.41,5.04-12.16,5.04s-9.06-1.93-12.18-5.04c-3.12-3.12-5.04-7.42-5.04-12.16s1.93-9.06,5.04-12.18,7.42-5.04,12.18-5.04,9.06,1.93,12.16,5.04c3.12,3.12,5.04,7.42,5.04,12.18Z"/>
  </g>
  <g>
    <path class="cls-3" d="M407.14,261.78h-.01c-8.09-8.11-19.28-13.13-31.66-13.13s-23.57,5.02-31.66,13.13h-.01c-8.11,8.09-13.13,19.3-13.13,31.68s5.02,23.57,13.13,31.68c8.09,8.11,19.3,13.13,31.68,13.13s23.58-5.02,31.68-13.13c8.11-8.11,13.13-19.31,13.13-31.68s-5.02-23.58-13.13-31.68Z"/>
    <path class="cls-1" d="M392.67,293.46c0,4.74-1.93,9.05-5.04,12.16-3.1,3.12-7.41,5.04-12.16,5.04s-9.06-1.93-12.18-5.04c-3.12-3.12-5.04-7.42-5.04-12.16s1.93-9.06,5.04-12.18c3.12-3.12,7.42-5.04,12.18-5.04s9.06,1.93,12.16,5.04c3.12,3.12,5.04,7.42,5.04,12.18Z"/>
  </g>
</svg>