<?xml version="1.0" encoding="UTF-8"?>
<svg id="Layer_1" data-name="Layer 1" xmlns="http://www.w3.org/2000/svg" viewBox="0 0 512 512">
  <defs>
    <style>
      .cls-1 {
        fill: #00c658;
      }

      .cls-2 {
        fill: #0072f7;
      }

      .cls-3, .cls-4 {
        fill: #ffea00;
      }

      .cls-5 {
        fill: #9bdcff;
      }

      .cls-4, .cls-6 {
        stroke: #003021;
        stroke-linecap: round;
        stroke-linejoin: round;
        stroke-width: 9px;
      }

      .cls-6 {
        fill: none;
      }
    </style>
  </defs>
  <g>
    <g>
      <path class="cls-2" d="M313.94,160.23c0,21.83-12.28,40.78-30.3,50.31-7.94,4.2-16.99,6.58-26.58,6.58s-19.17-2.51-27.24-6.94c-17.66-9.65-29.65-28.4-29.65-49.95,0-31.41,25.47-56.89,56.89-56.89s56.88,25.48,56.88,56.89Z"/>
      <path class="cls-5" d="M358.1,277.23h0s-46.58,75.58-46.58,75.58c-2.01-5.85-3.1-12.12-3.1-18.65,0-29.1,21.63-53.14,49.68-56.93Z"/>
    </g>
    <g>
      <g>
        <path class="cls-1" d="M442.05,179.83c0,15.52-8.73,29-21.55,35.77-.7,.37-1.42,.73-2.15,1.06-1.46,.66-2.97,1.25-4.51,1.74-.39,.12-.78,.24-1.17,.35-1.17,.33-2.36,.61-3.57,.84-.81,.15-1.63,.28-2.46,.38-.82,.1-1.66,.18-2.5,.23-.84,.05-1.69,.08-2.54,.08-7.02,0-13.62-1.78-19.38-4.93-12.55-6.87-21.07-20.2-21.07-35.52,0-22.34,18.11-40.46,40.45-40.46s40.45,18.12,40.45,40.46Z"/>
        <path class="cls-5" d="M420.63,316.78l-44.56-39.16c21.1,3.77,38.2,19.08,44.56,39.16Z"/>
      </g>
      <g>
        <path class="cls-1" d="M152.36,179.83c0,15.52-8.74,29-21.56,35.77-.7,.37-1.42,.73-2.15,1.06-1.46,.66-2.96,1.25-4.51,1.74-.38,.12-.77,.24-1.16,.35-.46,.13-.92,.25-1.38,.36-.28,.07-.56,.14-.85,.2-.45,.1-.9,.19-1.35,.28-.81,.15-1.63,.28-2.46,.38-.82,.1-1.66,.18-2.5,.23-.84,.05-1.68,.08-2.54,.08-7.02,0-13.62-1.78-19.37-4.93-12.56-6.86-21.08-20.2-21.08-35.52,0-22.34,18.11-40.46,40.45-40.46s40.46,18.12,40.46,40.46Z"/>
        <path class="cls-2" d="M308.42,334.16c0,6.53,1.09,12.8,3.1,18.65H183.18c-20,0-36.24-16.1-36.47-36.03-.02-.15-.02-.32-.02-.46,0-27.49,10.14-52.6,26.9-71.8,1.65-1.88,3.36-3.72,5.13-5.49,13.85-13.87,31.42-24.02,51.1-28.85,8.07,4.43,17.36,6.94,27.24,6.94s18.64-2.38,26.58-6.58c19.07,4.96,36.12,14.97,49.64,28.49,1.77,1.77,3.48,3.61,5.13,5.49,8.36,9.58,15.07,20.62,19.69,32.71-28.05,3.79-49.68,27.83-49.68,56.93Z"/>
        <path class="cls-1" d="M146.69,316.32c0,.14,0,.31,.02,.46H59.37c-14.33,0-25.94-11.63-25.94-25.96,0-21.46,8.69-40.89,22.77-54.95,9.84-9.87,22.34-17.09,36.33-20.52,5.75,3.15,12.35,4.93,19.37,4.93,.86,0,1.7-.03,2.54-.08,.84-.05,1.68-.13,2.5-.23,.83-.1,1.65-.23,2.46-.38,.45-.09,.9-.18,1.35-.28,.29-.06,.57-.13,.85-.2,.46-.11,.92-.23,1.38-.36,.39-.11,.78-.23,1.16-.35,1.55-.49,3.05-1.07,4.51-1.74,.73-.33,1.45-.69,2.15-1.06,13.57,3.53,25.69,10.65,35.32,20.27,2.7,2.7,5.19,5.59,7.47,8.65-16.76,19.2-26.9,44.31-26.9,71.8Z"/>
      </g>
    </g>
  </g>
  <path class="cls-1" d="M478.57,290.82c0,14.33-11.61,25.96-25.94,25.96h-32c-6.36-20.08-23.46-35.39-44.56-39.16-3.31-.6-6.72-.91-10.2-.91-2.64,0-5.23,.18-7.77,.52-4.62-12.09-11.33-23.13-19.69-32.71,2.28-3.06,4.77-5.95,7.47-8.65,9.86-9.87,22.36-17.09,36.34-20.52,5.76,3.15,12.36,4.93,19.38,4.93,.85,0,1.7-.03,2.54-.08,.84-.05,1.68-.13,2.5-.23,.83-.1,1.65-.23,2.46-.38,1.21-.23,2.4-.51,3.57-.84,.39-.11,.78-.23,1.17-.35,1.55-.49,3.05-1.07,4.51-1.74,.73-.33,1.45-.69,2.15-1.06,13.57,3.53,25.69,10.65,35.3,20.27,14.08,14.06,22.77,33.49,22.77,54.95Z"/>
  <path class="cls-3" d="M423.31,334.16c0,31.72-25.72,57.44-57.44,57.44-25.2,0-46.61-16.22-54.35-38.79-2.01-5.85-3.1-12.12-3.1-18.65,0-29.1,21.63-53.14,49.68-56.93,2.54-.34,5.13-.52,7.77-.52,3.48,0,6.89,.31,10.2,.91,21.1,3.77,38.2,19.08,44.56,39.16,1.74,5.48,2.68,11.32,2.68,17.38Z"/>
  <g>
    <circle class="cls-4" cx="386.41" cy="332.04" r="9.27"/>
    <polyline class="cls-4" points="377.14 332.04 336.05 332.04 336.05 343.3"/>
    <line class="cls-6" x1="353.58" y1="342.8" x2="353.58" y2="332.04"/>
  </g>
</svg>