<?xml version="1.0" encoding="UTF-8"?>
<svg id="Layer_1" data-name="Layer 1" xmlns="http://www.w3.org/2000/svg" viewBox="0 0 512 512">
  <defs>
    <style>
      .cls-1 {
        fill: #00c658;
      }

      .cls-2, .cls-3 {
        fill: #0072f7;
      }

      .cls-4 {
        fill: #fff;
      }

      .cls-5 {
        fill: #ffea00;
      }

      .cls-6 {
        fill: #9bdcff;
      }

      .cls-3 {
        stroke: #003021;
        stroke-linecap: round;
        stroke-linejoin: round;
        stroke-width: 9px;
      }
    </style>
  </defs>
  <rect class="cls-6" x="114.86" y="54.63" width="282.28" height="385.69"/>
  <polygon class="cls-2" points="114.86 227.91 114.86 407.89 67.56 394.45 114.86 227.91"/>
  <polygon class="cls-2" points="282.85 54.63 164.06 54.63 172.94 23.4 282.85 54.63"/>
  <polygon class="cls-2" points="347.97 440.32 339.09 471.55 229.12 440.32 347.97 440.32"/>
  <polygon class="cls-2" points="444.44 100.53 397.14 267.13 397.14 87.09 444.44 100.53"/>
  <g>
    <path class="cls-1" d="M223.29,118.25c0,10.31-6.14,19.21-15,23.21-3.21,1.45-6.76,2.28-10.52,2.28s-7.31-.83-10.52-2.28c-8.83-4-14.97-12.9-14.97-23.21,0-14.07,11.42-25.49,25.49-25.49s25.52,11.42,25.52,25.49Z"/>
    <path class="cls-1" d="M245.81,188.3v5.79h-96.08v-5.79c0-22.9,16.04-42.04,37.52-46.83,3.21,1.45,6.76,2.28,10.52,2.28s7.31-.83,10.52-2.28c9.04,2,17.14,6.59,23.45,12.9,8.69,8.66,14.07,20.66,14.07,33.93Z"/>
  </g>
  <rect class="cls-5" x="276.16" y="95.87" width="79.38" height="18.61"/>
  <path class="cls-5" d="M319.59,409.86s8.77-9.24,29.09-16.62c13.39-6,17.86-20.86,7.7-37.02-14.32-23.55,7.08-39.41,7.08-39.41l-5.31-9.24h-28.63s-9.93-9.24-9.93-9.24l-9.93,9.24h-28.63l-5.31,9.24s21.4,15.85,7.08,39.41c-10.16,16.16-5.7,31.02,7.7,37.02,20.32,7.39,29.09,16.62,29.09,16.62Z"/>
  <polygon class="cls-4" points="319.59 317.76 323.99 331.3 338.23 331.3 326.71 339.67 331.11 353.21 319.59 344.84 308.08 353.21 312.48 339.67 300.96 331.3 315.2 331.3 319.59 317.76"/>
  <g>
    <line class="cls-3" x1="276.16" y1="139.91" x2="358.39" y2="139.91"/>
    <line class="cls-3" x1="274.73" y1="161.07" x2="356.97" y2="161.07"/>
    <line class="cls-3" x1="273.31" y1="182.22" x2="313.64" y2="182.22"/>
    <line class="cls-3" x1="154.27" y1="234.26" x2="357.39" y2="234.26"/>
    <line class="cls-3" x1="154.44" y1="267.56" x2="357.56" y2="267.56"/>
    <line class="cls-3" x1="154.61" y1="300.86" x2="245.48" y2="300.86"/>
    <line class="cls-3" x1="154.77" y1="334.16" x2="245.64" y2="334.16"/>
    <line class="cls-3" x1="154.94" y1="367.46" x2="245.81" y2="367.46"/>
    <line class="cls-3" x1="155.11" y1="400.76" x2="245.98" y2="400.76"/>
    <path class="cls-3" d="M296.97,375.91s17.32,11.08,45.49,0"/>
  </g>
</svg>