<svg width="53" height="34" viewBox="0 0 53 34" fill="none" xmlns="http://www.w3.org/2000/svg">
<path id="Vector" d="M7.18321 34C6.71099 34 6.22354 34 5.65993 33.9238C4.97889 33.869 4.32816 33.6187 3.78586 33.2031C3.24356 32.7875 2.83275 32.2242 2.60274 31.5808C2.37274 30.9375 2.33332 30.2414 2.48922 29.5762C2.64512 28.911 2.98972 28.3049 3.48163 27.8307C4.36884 27.0404 5.0665 26.0602 5.52274 24.9631C5.97898 23.866 6.18207 22.6802 6.11691 21.4938C3.71589 20.2391 1.84049 18.1699 0.82714 15.6575C-0.186214 13.145 -0.271214 10.3537 0.587387 7.78426C1.13412 6.17276 2.05861 4.71551 3.2836 3.5343C4.79943 1.95633 6.73446 0.844188 8.86097 0.328752C10.9875 -0.186684 13.217 -0.0839645 15.2871 0.624822C17.5297 1.37939 19.5203 2.73892 21.039 4.55335C22.5577 6.36778 23.5456 8.56656 23.8937 10.907C24.6435 15.114 23.985 19.4509 22.02 23.2456V23.3675C17.3283 30.7402 12.8498 34 7.18321 34ZM6.6196 30.1766C9.98606 30.3441 13.779 29.2017 18.684 21.4024C20.2239 18.4001 20.7579 14.9824 20.2073 11.6534C19.9796 9.97343 19.2892 8.38989 18.2131 7.07981C17.1371 5.76973 15.7179 4.78476 14.1142 4.23501C12.7192 3.74423 11.2116 3.67015 9.77523 4.0218C8.33889 4.37344 7.03598 5.13561 6.02551 6.21528C5.22963 6.99627 4.63393 7.95775 4.28897 9.01812C3.68183 10.8495 3.79233 12.843 4.59816 14.596C5.40398 16.349 6.84507 17.7309 8.63033 18.4625C8.92296 18.5797 9.18193 18.7677 9.38398 19.0096C9.58604 19.2515 9.72488 19.5399 9.78803 19.8487C10.1515 21.698 10.0525 23.6084 9.49969 25.4102C8.94694 27.212 7.95759 28.8493 6.6196 30.1766ZM35.6534 34C35.166 34 34.6937 34 34.1301 33.9238C33.4491 33.869 32.7984 33.6187 32.2561 33.2031C31.7138 32.7875 31.3029 32.2242 31.0729 31.5808C30.8429 30.9375 30.8035 30.2414 30.9594 29.5762C31.1153 28.911 31.4599 28.3049 31.9518 27.8307C32.839 27.0404 33.5367 26.0602 33.9929 24.9631C34.4492 23.866 34.6523 22.6802 34.5871 21.4938C32.1883 20.2368 30.3148 18.1673 29.3018 15.6557C28.2887 13.144 28.2022 10.3539 29.0576 7.78426C29.5958 6.17948 30.5038 4.72368 31.7081 3.5343C33.2276 1.95216 35.1679 0.837593 37.3002 0.322081C39.4324 -0.193432 41.6676 -0.0883876 43.7421 0.624822C45.9865 1.37636 47.9788 2.73498 49.498 4.54997C51.0172 6.36496 52.0039 8.56534 52.3486 10.907C53.0985 15.114 52.4399 19.4509 50.475 23.2456C50.4777 23.2862 50.4777 23.3269 50.475 23.3675C45.7985 30.7402 41.3048 34 35.6534 34ZM35.0746 30.1766C38.4563 30.3441 42.234 29.2017 47.1542 21.4024C48.7067 18.4042 49.2414 14.9823 48.6775 11.6534C48.6846 11.6029 48.6846 11.5516 48.6775 11.5011C48.4402 9.84234 47.7439 8.28297 46.6672 6.99904C45.5905 5.7151 44.1764 4.75773 42.5844 4.23501C41.1894 3.74423 39.6818 3.67015 38.2454 4.0218C36.8091 4.37344 35.5062 5.13561 34.4957 6.21528C33.7101 6.99624 33.1293 7.95897 32.8049 9.01812C32.1977 10.8495 32.3082 12.843 33.1141 14.596C33.9199 16.349 35.361 17.7309 37.1462 18.4625C37.4353 18.5828 37.6905 18.7721 37.8896 19.0137C38.0888 19.2553 38.2258 19.542 38.2887 19.8487C38.6492 21.7017 38.5442 23.6152 37.9833 25.4177C37.4223 27.2202 36.4229 28.8553 35.0746 30.1766Z" fill="#00E89F"/>
</svg>
