<svg width="27" height="26" viewBox="0 0 27 26" fill="none" xmlns="http://www.w3.org/2000/svg">
<path d="M22.2588 3.79022C19.731 1.27544 16.6428 0 13.0808 0C9.48559 0 6.3887 1.27689 3.87537 3.79167C1.3577 6.30644 0.0808105 9.40622 0.0808105 13C0.0808105 16.5606 1.35625 19.6488 3.87103 22.178C6.38581 24.7144 9.48414 26 13.0808 26C16.6443 26 19.7325 24.7144 22.2617 22.1823C24.7967 19.6502 26.0808 16.5606 26.0808 13C26.0808 9.40622 24.7953 6.30644 22.2588 3.79022ZM20.2193 20.1399C18.5769 21.7851 16.7006 22.7226 14.5253 23.0071V15.8889H17.4141V13H14.5253V10.9778C14.5253 10.8638 14.5477 10.751 14.5914 10.6458C14.635 10.5405 14.699 10.4449 14.7796 10.3644C14.8602 10.2839 14.9559 10.2201 15.0613 10.1767C15.1666 10.1332 15.2794 10.1109 15.3934 10.1111H17.4141V7.22222H15.3963C14.3245 7.22222 13.4304 7.61655 12.7139 8.40955C11.9975 9.19967 11.6364 10.1646 11.6364 11.31V13H8.74748V15.8889H11.6364V23.01C9.43792 22.7283 7.55437 21.7894 5.9207 20.1442C3.93459 18.1451 2.9697 15.808 2.9697 13C2.9697 10.1602 3.93314 7.81733 5.91925 5.83556C7.89814 3.85233 10.241 2.88889 13.0808 2.88889C15.8903 2.88889 18.2259 3.85378 20.2236 5.83989C22.2213 7.82167 23.1919 10.1646 23.1919 13C23.1919 15.8037 22.2198 18.1408 20.2193 20.1399Z" fill="#444444"/>
</svg>
