<svg width="130" height="141" viewBox="0 0 130 141" fill="none" xmlns="http://www.w3.org/2000/svg">
<path id="Vector" d="M64.5511 0.00923758L61.2164 3.75039C47.0831 19.6203 27.4629 27.1118 4.05523 29.9662L0 30.4558V34.548C0 58.3805 5.04363 81.5018 15.4819 100.457C25.9202 119.412 41.9379 134.201 63.341 140.584L64.7174 141L66.0845 140.529C107.45 127.162 129.324 83.6171 129.324 34.548V30.8715L125.731 30.0216C102.96 24.7748 81.9636 18.4009 68.0151 3.66726L64.5511 0V0.00923758ZM64.7728 12.295C79.7282 26.262 99.3669 32.9868 119.708 37.8457C118.738 82.0098 99.4131 118.849 64.625 130.977C46.5104 125.112 32.8298 112.78 23.5831 95.9953C14.5674 79.645 10.0965 59.2119 9.61615 37.9658C31.0008 34.7235 50.0945 27.0656 64.7636 12.295H64.7728ZM89.3259 51.8404L55.637 81.3355L40.2105 65.9275L33.6796 72.4583L55.2028 93.9815L95.4226 58.7962L89.3259 51.8404Z" fill="#00E89F"/>
</svg>
