<svg width="31" height="31" viewBox="0 0 31 31" fill="none" xmlns="http://www.w3.org/2000/svg">
<g id="Group 692">
<g id="Vector">
<path d="M15.5011 0C11.2915 0 10.7632 0.0184065 9.1099 0.0936461C7.45978 0.169209 6.33343 0.430448 5.34788 0.81375C4.32842 1.20965 3.46364 1.73923 2.60209 2.60109C1.73989 3.46264 1.2103 4.32741 0.813112 5.34653C0.428838 6.3324 0.167273 7.45905 0.093001 9.10851C0.0193752 10.7618 0 11.2905 0 15.5C0 19.7095 0.0187297 20.2362 0.0936471 21.8896C0.169533 23.5397 0.430776 24.666 0.813759 25.6515C1.20998 26.671 1.73957 27.5358 2.60144 28.3973C3.46267 29.2595 4.32745 29.7904 5.34626 30.1863C6.33246 30.5696 7.45913 30.8308 9.10893 30.9064C10.7623 30.9816 11.2903 31 15.4995 31C19.7094 31 20.2361 30.9816 21.8895 30.9064C23.5396 30.8308 24.6672 30.5696 25.6534 30.1863C26.6726 29.7904 27.536 29.2595 28.3973 28.3973C29.2595 27.5358 29.789 26.671 30.1862 25.6519C30.5673 24.666 30.8289 23.5393 30.9064 21.8899C30.9806 20.2365 31 19.7095 31 15.5C31 11.2905 30.9806 10.7622 30.9064 9.10883C30.8289 7.45873 30.5673 6.3324 30.1862 5.34685C29.789 4.32741 29.2595 3.46264 28.3973 2.60109C27.5351 1.73891 26.6729 1.20932 25.6524 0.81375C24.6643 0.430448 23.5373 0.169209 21.8872 0.0936461C20.2338 0.0184065 19.7075 0 15.4966 0H15.5011ZM14.1106 2.79323C14.5233 2.79258 14.9838 2.79323 15.5011 2.79323C19.6397 2.79323 20.1302 2.80808 21.7645 2.88235C23.2758 2.95146 24.096 3.20398 24.6424 3.41614C25.3657 3.69707 25.8814 4.03291 26.4236 4.57541C26.9661 5.11791 27.3019 5.63457 27.5835 6.35791C27.7957 6.90364 28.0485 7.72384 28.1173 9.23509C28.1916 10.8691 28.2077 11.3599 28.2077 15.4964C28.2077 19.633 28.1916 20.1238 28.1173 21.7578C28.0482 23.2691 27.7957 24.0893 27.5835 24.635C27.3026 25.3583 26.9661 25.8734 26.4236 26.4156C25.8811 26.9581 25.366 27.2939 24.6424 27.5748C24.0966 27.7879 23.2758 28.0398 21.7645 28.1089C20.1305 28.1832 19.6397 28.1993 15.5011 28.1993C11.3623 28.1993 10.8717 28.1832 9.23777 28.1089C7.72651 28.0392 6.90629 27.7867 6.35959 27.5745C5.63625 27.2936 5.11957 26.9577 4.57707 26.4152C4.03456 25.8727 3.69873 25.3574 3.41714 24.6337C3.20498 24.088 2.95214 23.2678 2.88335 21.7565C2.80908 20.1226 2.79423 19.6317 2.79423 15.4926C2.79423 11.3534 2.80908 10.8652 2.88335 9.23122C2.95246 7.71997 3.20498 6.89976 3.41714 6.35338C3.69808 5.63005 4.03456 5.11339 4.57707 4.57089C5.11957 4.02839 5.63625 3.69255 6.35959 3.41097C6.90597 3.19784 7.72651 2.94597 9.23777 2.87654C10.6677 2.81196 11.2218 2.79258 14.1106 2.78935V2.79323Z" fill="url(#paint0_radial_90_2)"/>
<path d="M23.7417 5.3288C23.3738 5.3288 23.0141 5.4379 22.7082 5.64231C22.4023 5.84672 22.1639 6.13725 22.0232 6.47716C21.8824 6.81707 21.8456 7.19108 21.9174 7.55191C21.9892 7.91273 22.1665 8.24415 22.4266 8.50425C22.6868 8.76435 23.0183 8.94144 23.3792 9.01314C23.74 9.08484 24.114 9.04791 24.4539 8.90703C24.7938 8.76615 25.0842 8.52765 25.2885 8.22169C25.4928 7.91573 25.6018 7.55605 25.6017 7.18815C25.6017 6.16128 24.7685 5.32815 23.7417 5.32815V5.3288Z" fill="url(#paint1_radial_90_2)"/>
<path fill-rule="evenodd" clip-rule="evenodd" d="M15.4678 7.50203C11.0719 7.50203 7.50782 11.0661 7.50782 15.4619C7.50782 19.8578 11.0719 23.4202 15.4678 23.4202C19.8637 23.4202 23.4268 19.8578 23.4268 15.4619C23.4268 11.0661 19.8637 7.50203 15.4678 7.50203ZM15.5 20.586C18.3089 20.586 20.5859 18.3089 20.5859 15.5C20.5859 12.6911 18.3089 10.4141 15.5 10.4141C12.6911 10.4141 10.4141 12.6911 10.4141 15.5C10.4141 18.3089 12.6911 20.586 15.5 20.586Z" fill="url(#paint2_radial_90_2)"/>
</g>
<g id="Vector_2">
<path d="M15.5011 0C11.2915 0 10.7632 0.0184065 9.1099 0.0936461C7.45978 0.169209 6.33343 0.430448 5.34788 0.81375C4.32842 1.20965 3.46364 1.73923 2.60209 2.60109C1.73989 3.46264 1.2103 4.32741 0.813112 5.34653C0.428838 6.3324 0.167273 7.45905 0.093001 9.10851C0.0193752 10.7618 0 11.2905 0 15.5C0 19.7095 0.0187297 20.2362 0.0936471 21.8896C0.169533 23.5397 0.430776 24.666 0.813759 25.6515C1.20998 26.671 1.73957 27.5358 2.60144 28.3973C3.46267 29.2595 4.32745 29.7904 5.34626 30.1863C6.33246 30.5696 7.45913 30.8308 9.10893 30.9064C10.7623 30.9816 11.2903 31 15.4995 31C19.7094 31 20.2361 30.9816 21.8895 30.9064C23.5396 30.8308 24.6672 30.5696 25.6534 30.1863C26.6726 29.7904 27.536 29.2595 28.3973 28.3973C29.2595 27.5358 29.789 26.671 30.1862 25.6519C30.5673 24.666 30.8289 23.5393 30.9064 21.8899C30.9806 20.2365 31 19.7095 31 15.5C31 11.2905 30.9806 10.7622 30.9064 9.10883C30.8289 7.45873 30.5673 6.3324 30.1862 5.34685C29.789 4.32741 29.2595 3.46264 28.3973 2.60109C27.5351 1.73891 26.6729 1.20932 25.6524 0.81375C24.6643 0.430448 23.5373 0.169209 21.8872 0.0936461C20.2338 0.0184065 19.7075 0 15.4966 0H15.5011ZM14.1106 2.79323C14.5233 2.79258 14.9838 2.79323 15.5011 2.79323C19.6397 2.79323 20.1302 2.80808 21.7645 2.88235C23.2758 2.95146 24.096 3.20398 24.6424 3.41614C25.3657 3.69707 25.8814 4.03291 26.4236 4.57541C26.9661 5.11791 27.3019 5.63457 27.5835 6.35791C27.7957 6.90364 28.0485 7.72384 28.1173 9.23509C28.1916 10.8691 28.2077 11.3599 28.2077 15.4964C28.2077 19.633 28.1916 20.1238 28.1173 21.7578C28.0482 23.2691 27.7957 24.0893 27.5835 24.635C27.3026 25.3583 26.9661 25.8734 26.4236 26.4156C25.8811 26.9581 25.366 27.2939 24.6424 27.5748C24.0966 27.7879 23.2758 28.0398 21.7645 28.1089C20.1305 28.1832 19.6397 28.1993 15.5011 28.1993C11.3623 28.1993 10.8717 28.1832 9.23777 28.1089C7.72651 28.0392 6.90629 27.7867 6.35959 27.5745C5.63625 27.2936 5.11957 26.9577 4.57707 26.4152C4.03456 25.8727 3.69873 25.3574 3.41714 24.6337C3.20498 24.088 2.95214 23.2678 2.88335 21.7565C2.80908 20.1226 2.79423 19.6317 2.79423 15.4926C2.79423 11.3534 2.80908 10.8652 2.88335 9.23122C2.95246 7.71997 3.20498 6.89976 3.41714 6.35338C3.69808 5.63005 4.03456 5.11339 4.57707 4.57089C5.11957 4.02839 5.63625 3.69255 6.35959 3.41097C6.90597 3.19784 7.72651 2.94597 9.23777 2.87654C10.6677 2.81196 11.2218 2.79258 14.1106 2.78935V2.79323Z" fill="url(#paint3_radial_90_2)"/>
<path d="M23.7417 5.3288C23.3738 5.3288 23.0141 5.4379 22.7082 5.64231C22.4023 5.84672 22.1639 6.13725 22.0232 6.47716C21.8824 6.81707 21.8456 7.19108 21.9174 7.55191C21.9892 7.91273 22.1665 8.24415 22.4266 8.50425C22.6868 8.76435 23.0183 8.94144 23.3792 9.01314C23.74 9.08484 24.114 9.04791 24.4539 8.90703C24.7938 8.76615 25.0842 8.52765 25.2885 8.22169C25.4928 7.91573 25.6018 7.55605 25.6017 7.18815C25.6017 6.16128 24.7685 5.32815 23.7417 5.32815V5.3288Z" fill="url(#paint4_radial_90_2)"/>
<path fill-rule="evenodd" clip-rule="evenodd" d="M15.4678 7.50203C11.0719 7.50203 7.50782 11.0661 7.50782 15.4619C7.50782 19.8578 11.0719 23.4202 15.4678 23.4202C19.8637 23.4202 23.4268 19.8578 23.4268 15.4619C23.4268 11.0661 19.8637 7.50203 15.4678 7.50203ZM15.5 20.586C18.3089 20.586 20.5859 18.3089 20.5859 15.5C20.5859 12.6911 18.3089 10.4141 15.5 10.4141C12.6911 10.4141 10.4141 12.6911 10.4141 15.5C10.4141 18.3089 12.6911 20.586 15.5 20.586Z" fill="url(#paint5_radial_90_2)"/>
</g>
</g>
<defs>
<radialGradient id="paint0_radial_90_2" cx="0" cy="0" r="1" gradientUnits="userSpaceOnUse" gradientTransform="translate(8.23441 33.3877) rotate(-90) scale(30.7233 28.5751)">
<stop stop-color="#FFDD55"/>
<stop offset="0.1" stop-color="#FFDD55"/>
<stop offset="0.5" stop-color="#FF543E"/>
<stop offset="1" stop-color="#C837AB"/>
</radialGradient>
<radialGradient id="paint1_radial_90_2" cx="0" cy="0" r="1" gradientUnits="userSpaceOnUse" gradientTransform="translate(8.23441 33.3877) rotate(-90) scale(30.7233 28.5751)">
<stop stop-color="#FFDD55"/>
<stop offset="0.1" stop-color="#FFDD55"/>
<stop offset="0.5" stop-color="#FF543E"/>
<stop offset="1" stop-color="#C837AB"/>
</radialGradient>
<radialGradient id="paint2_radial_90_2" cx="0" cy="0" r="1" gradientUnits="userSpaceOnUse" gradientTransform="translate(8.23441 33.3877) rotate(-90) scale(30.7233 28.5751)">
<stop stop-color="#FFDD55"/>
<stop offset="0.1" stop-color="#FFDD55"/>
<stop offset="0.5" stop-color="#FF543E"/>
<stop offset="1" stop-color="#C837AB"/>
</radialGradient>
<radialGradient id="paint3_radial_90_2" cx="0" cy="0" r="1" gradientUnits="userSpaceOnUse" gradientTransform="translate(-5.19266 2.23319) rotate(78.6806) scale(13.7334 56.6098)">
<stop stop-color="#3771C8"/>
<stop offset="0.128" stop-color="#3771C8"/>
<stop offset="1" stop-color="#6600FF" stop-opacity="0"/>
</radialGradient>
<radialGradient id="paint4_radial_90_2" cx="0" cy="0" r="1" gradientUnits="userSpaceOnUse" gradientTransform="translate(-5.19266 2.23319) rotate(78.6806) scale(13.7334 56.6098)">
<stop stop-color="#3771C8"/>
<stop offset="0.128" stop-color="#3771C8"/>
<stop offset="1" stop-color="#6600FF" stop-opacity="0"/>
</radialGradient>
<radialGradient id="paint5_radial_90_2" cx="0" cy="0" r="1" gradientUnits="userSpaceOnUse" gradientTransform="translate(-5.19266 2.23319) rotate(78.6806) scale(13.7334 56.6098)">
<stop stop-color="#3771C8"/>
<stop offset="0.128" stop-color="#3771C8"/>
<stop offset="1" stop-color="#6600FF" stop-opacity="0"/>
</radialGradient>
</defs>
</svg>
