<svg width="31" height="33" viewBox="0 0 31 33" fill="none" xmlns="http://www.w3.org/2000/svg">
<g id="Group 621">
<path id="Rectangle 32" d="M0 5.94676C0 3.03258 2.35855 0.670166 5.26797 0.670166H25.732C28.6414 0.670166 31 3.03258 31 5.94676V27.0531C31 29.9673 28.6414 32.3297 25.732 32.3297H5.26798C2.35855 32.3297 0 29.9673 0 27.0531V5.94676Z" fill="#0077B5"/>
<g id="Vector">
<path d="M21.8212 27.8784H26.4893V18.4483C26.4893 13.791 23.6745 12.2025 21.0697 12.2025C18.6612 12.2025 17.0251 13.8049 16.5733 14.7436V12.631H12.084V27.8784H16.7521V19.6118C16.7521 17.4076 18.1099 16.3357 19.495 16.3357C20.8052 16.3357 21.8212 17.0935 21.8212 19.5506V27.8784Z" fill="white"/>
<path d="M4.25452 7.75157C4.25452 9.3434 5.45942 10.5067 6.94572 10.5067C8.43223 10.5067 9.63714 9.3434 9.63714 7.75157C9.63714 6.15997 8.43223 4.99536 6.94572 4.99536C5.45942 4.99536 4.25452 6.15997 4.25452 7.75157Z" fill="white"/>
<path d="M4.61181 27.8667H9.27963V12.6193H4.61181V27.8667Z" fill="white"/>
</g>
</g>
</svg>
