<?xml version="1.0" encoding="UTF-8"?>
<!DOCTYPE svg PUBLIC "-//W3C//DTD SVG 1.1//EN" "http://www.w3.org/Graphics/SVG/1.1/DTD/svg11.dtd">
<svg xmlns="http://www.w3.org/2000/svg" version="1.1" width="800px" height="600px" style="shape-rendering:geometricPrecision; text-rendering:geometricPrecision; image-rendering:optimizeQuality; fill-rule:evenodd; clip-rule:evenodd" xmlns:xlink="http://www.w3.org/1999/xlink">
<g><path style="opacity:1" fill="#ffffff" d="M -0.5,-0.5 C 266.167,-0.5 532.833,-0.5 799.5,-0.5C 799.5,199.5 799.5,399.5 799.5,599.5C 532.833,599.5 266.167,599.5 -0.5,599.5C -0.5,399.5 -0.5,199.5 -0.5,-0.5 Z"/></g>
<g><path style="opacity:1" fill="#ffffff" d="M 491.5,158.5 C 499.755,159.303 508.089,159.803 516.5,160C 521.408,162.873 521.741,166.206 517.5,170C 510.167,170.333 502.833,170.667 495.5,171C 484.375,176.083 481.208,184.25 486,195.5C 490.156,200.578 495.489,203.245 502,203.5C 502.832,211.853 502.665,220.187 501.5,228.5C 499.899,229.035 499.399,230.035 500,231.5C 502,232.833 504,232.833 506,231.5C 506.333,228.5 506.667,225.5 507,222.5C 508.167,225 510,226.833 512.5,228C 516.025,228.179 519.359,228.679 522.5,229.5C 515.833,232.5 509.167,235.5 502.5,238.5C 501.417,238.461 500.417,238.127 499.5,237.5C 498.511,233.893 498.177,230.226 498.5,226.5C 494.5,226.5 490.5,226.5 486.5,226.5C 486.762,227.978 486.429,229.311 485.5,230.5C 483.224,231.213 480.891,231.713 478.5,232C 477.107,233.171 476.273,234.671 476,236.5C 472.697,235.816 469.864,234.316 467.5,232C 465.5,231.333 463.5,231.333 461.5,232C 460.944,232.383 460.611,232.883 460.5,233.5C 458.806,234.527 457.473,235.861 456.5,237.5C 456.5,234.167 456.5,230.833 456.5,227.5C 454.396,227.799 452.396,227.466 450.5,226.5C 451.993,225.859 452.993,224.859 453.5,223.5C 447.355,222.51 441.022,222.177 434.5,222.5C 434.263,223.791 434.596,224.791 435.5,225.5C 437.199,225.34 438.866,225.506 440.5,226C 438.942,226.21 437.609,226.71 436.5,227.5C 435.523,230.287 435.19,233.287 435.5,236.5C 414.836,235.754 394.17,235.588 373.5,236C 361.253,242.192 348.92,248.192 336.5,254C 312.18,255.706 287.846,257.206 263.5,258.5C 258.968,258.182 254.634,258.515 250.5,259.5C 245.489,259.334 240.489,259.501 235.5,260C 232.167,264.333 228.833,268.667 225.5,273C 223.866,273.494 222.199,273.66 220.5,273.5C 220.5,274.5 220.5,275.5 220.5,276.5C 219.5,276.5 218.5,276.5 217.5,276.5C 217.5,279.5 217.5,282.5 217.5,285.5C 218.5,285.5 219.5,285.5 220.5,285.5C 220.5,286.5 220.5,287.5 220.5,288.5C 222.199,288.34 223.866,288.506 225.5,289C 226.667,291.5 228.5,293.333 231,294.5C 231.236,296.764 231.736,298.931 232.5,301C 240.112,302.151 247.446,303.984 254.5,306.5C 254.953,307.458 255.619,308.292 256.5,309C 260.152,309.499 263.818,309.665 267.5,309.5C 269.811,315.145 273.811,319.145 279.5,321.5C 257.833,322.167 236.167,322.833 214.5,323.5C 212.353,324.932 212.02,326.765 213.5,329C 339.167,329.667 464.833,329.667 590.5,329C 591.833,327.333 591.833,325.667 590.5,324C 559.833,323.667 529.167,323.333 498.5,323C 499.573,321.75 499.573,320.416 498.5,319C 499.906,317.022 500.906,314.855 501.5,312.5C 505.417,312.372 509.083,311.372 512.5,309.5C 514.644,307.162 517.144,306.495 520,307.5C 522.722,306.556 525.222,305.223 527.5,303.5C 530.785,302.676 534.118,302.176 537.5,302C 538.613,297.267 539.28,292.434 539.5,287.5C 540.5,287.5 541.5,287.5 542.5,287.5C 543.554,282.893 544.221,278.227 544.5,273.5C 542.712,273.785 541.045,273.452 539.5,272.5C 537.731,268.356 536.064,264.19 534.5,260C 537.95,256.601 539.283,252.434 538.5,247.5C 538.806,241.424 537.472,235.757 534.5,230.5C 536.424,228.417 538.591,226.417 541,224.5C 543.688,216.165 540.521,211.998 531.5,212C 537.892,209.278 540.225,204.445 538.5,197.5C 543.297,197.879 547.964,197.379 552.5,196C 555.62,193.592 556.953,190.426 556.5,186.5C 568.211,184.447 573.044,177.447 571,165.5C 570.074,163.308 568.907,161.308 567.5,159.5C 611.501,159.333 655.501,159.5 699.5,160C 716.797,166.656 721.63,178.489 714,195.5C 710.135,200.854 704.968,204.354 698.5,206C 678.769,206.036 659.102,206.703 639.5,208C 627.411,214.923 623.577,225.089 628,238.5C 631.369,245.529 636.869,250.029 644.5,252C 656.167,252.333 667.833,252.667 679.5,253C 696.589,259.674 701.755,271.507 695,288.5C 691.06,294.438 685.56,297.938 678.5,299C 671.167,299.333 663.833,299.667 656.5,300C 641.645,305.542 636.145,316.042 640,331.5C 643.851,339.357 650.017,344.19 658.5,346C 686.167,346.333 713.833,346.667 741.5,347C 756.365,353.942 760.865,365.109 755,380.5C 752.117,385.05 748.284,388.55 743.5,391C 720.217,392.293 696.883,392.959 673.5,393C 656.858,397.777 650.692,408.61 655,425.5C 661.96,437.614 672.46,442.447 686.5,440C 700.343,444.52 706.51,454.02 705,468.5C 701.981,478.184 695.481,484.018 685.5,486C 629.833,486.667 574.167,486.667 518.5,486C 511.615,484.444 506.449,480.611 503,474.5C 501.16,468.283 499.827,461.95 499,455.5C 495.674,447.507 489.841,442.341 481.5,440C 420.5,439.333 359.5,439.333 298.5,440C 288.799,442.1 282.632,447.933 280,457.5C 280.944,471.81 274.778,481.31 261.5,486C 237.167,486.667 212.833,486.667 188.5,486C 179.599,482.765 173.766,476.598 171,467.5C 171.556,453.736 165.389,444.569 152.5,440C 130.833,439.667 109.167,439.333 87.5,439C 73.3977,432.961 68.231,422.461 72,407.5C 75.6891,400.15 81.5225,395.316 89.5,393C 103.833,392.667 118.167,392.333 132.5,392C 147.121,386.257 152.288,375.757 148,360.5C 144.777,353.8 139.61,349.3 132.5,347C 108.167,346.667 83.8333,346.333 59.5,346C 42.1072,339.485 36.9406,327.652 44,310.5C 46.74,306.042 50.5733,302.875 55.5,301C 89.4528,299.694 123.453,299.027 157.5,299C 174.54,291.426 179.04,279.26 171,262.5C 167.021,257.426 161.854,254.259 155.5,253C 141.443,255.551 130.943,250.718 124,238.5C 119.88,225.253 123.713,215.087 135.5,208C 163.772,206.691 192.105,206.025 220.5,206C 238.034,201.099 244.2,189.932 239,172.5C 235.458,165.806 229.958,161.639 222.5,160C 213.167,159.667 203.833,159.333 194.5,159C 180.892,154.286 175.059,144.786 177,130.5C 179.395,121.771 184.895,115.938 193.5,113C 262.167,112.333 330.833,112.333 399.5,113C 412.797,117.739 418.964,127.239 418,141.5C 420.412,149.177 425.246,154.677 432.5,158C 442.944,159.118 453.444,159.618 464,159.5C 473.34,159.5 482.506,159.166 491.5,158.5 Z"/></g>
<g><path style="opacity:1" fill="#75777a" d="M 567.5,159.5 C 568.907,161.308 570.074,163.308 571,165.5C 573.044,177.447 568.211,184.447 556.5,186.5C 556.953,190.426 555.62,193.592 552.5,196C 547.964,197.379 543.297,197.879 538.5,197.5C 540.225,204.445 537.892,209.278 531.5,212C 540.521,211.998 543.688,216.165 541,224.5C 538.591,226.417 536.424,228.417 534.5,230.5C 530.744,228.224 526.744,227.891 522.5,229.5C 519.359,228.679 516.025,228.179 512.5,228C 510,226.833 508.167,225 507,222.5C 506.667,225.5 506.333,228.5 506,231.5C 504,232.833 502,232.833 500,231.5C 499.399,230.035 499.899,229.035 501.5,228.5C 502.665,220.187 502.832,211.853 502,203.5C 495.489,203.245 490.156,200.578 486,195.5C 481.208,184.25 484.375,176.083 495.5,171C 502.833,170.667 510.167,170.333 517.5,170C 521.741,166.206 521.408,162.873 516.5,160C 508.089,159.803 499.755,159.303 491.5,158.5C 487.175,153.625 487.509,149.125 492.5,145C 497.167,144.667 501.833,144.333 506.5,144C 508.017,141.796 509.35,139.462 510.5,137C 513.633,137.046 516.3,136.046 518.5,134C 523.087,133.201 527.587,133.368 532,134.5C 530.883,136.651 530.216,138.985 530,141.5C 532.409,143.599 535.076,145.266 538,146.5C 538.319,149.973 539.819,152.806 542.5,155C 548.833,155.333 555.167,155.667 561.5,156C 563.692,156.926 565.692,158.093 567.5,159.5 Z"/></g>
<g><path style="opacity:1" fill="#a5abb1" d="M 453.5,223.5 C 447.074,222.88 441.074,223.547 435.5,225.5C 434.596,224.791 434.263,223.791 434.5,222.5C 441.022,222.177 447.355,222.51 453.5,223.5 Z"/></g>
<g><path style="opacity:1" fill="#e5eaf3" d="M 502.5,240.5 C 502.082,241.222 501.416,241.722 500.5,242C 493.154,242.417 485.821,242.917 478.5,243.5C 478.833,242.833 479.167,242.167 479.5,241.5C 482.025,240.319 484.525,238.986 487,237.5C 487.498,234.183 487.665,230.85 487.5,227.5C 490.898,227.18 494.232,227.513 497.5,228.5C 495.054,229.427 494.221,231.094 495,233.5C 496.636,236.786 499.136,239.12 502.5,240.5 Z"/></g>
<g><path style="opacity:1" fill="#eaeff8" d="M 437.5,228.5 C 439.5,228.5 441.5,228.5 443.5,228.5C 446.962,229.482 450.629,229.815 454.5,229.5C 454.5,231.833 454.5,234.167 454.5,236.5C 453.5,236.5 452.5,236.5 451.5,236.5C 451.768,234.901 451.434,233.568 450.5,232.5C 447.713,231.523 444.713,231.19 441.5,231.5C 441.5,233.167 441.5,234.833 441.5,236.5C 440.167,236.5 438.833,236.5 437.5,236.5C 437.5,233.833 437.5,231.167 437.5,228.5 Z"/></g>
<g><path style="opacity:1" fill="#515252" d="M 502.5,238.5 C 502.5,239.167 502.5,239.833 502.5,240.5C 499.136,239.12 496.636,236.786 495,233.5C 494.221,231.094 495.054,229.427 497.5,228.5C 494.232,227.513 490.898,227.18 487.5,227.5C 487.665,230.85 487.498,234.183 487,237.5C 484.525,238.986 482.025,240.319 479.5,241.5C 479.167,242.167 478.833,242.833 478.5,243.5C 477.508,243.328 476.842,243.662 476.5,244.5C 469.211,243.238 462.211,241.238 455.5,238.5C 456.167,238.5 456.5,238.167 456.5,237.5C 457.473,235.861 458.806,234.527 460.5,233.5C 460.611,232.883 460.944,232.383 461.5,232C 463.5,231.333 465.5,231.333 467.5,232C 469.864,234.316 472.697,235.816 476,236.5C 476.273,234.671 477.107,233.171 478.5,232C 480.891,231.713 483.224,231.213 485.5,230.5C 486.429,229.311 486.762,227.978 486.5,226.5C 490.5,226.5 494.5,226.5 498.5,226.5C 498.177,230.226 498.511,233.893 499.5,237.5C 500.417,238.127 501.417,238.461 502.5,238.5 Z"/></g>
<g><path style="opacity:1" fill="#999ca0" d="M 443.5,228.5 C 447.5,228.5 451.5,228.5 455.5,228.5C 455.5,231.5 455.5,234.5 455.5,237.5C 453.833,237.5 452.167,237.5 450.5,237.5C 450.5,235.833 450.5,234.167 450.5,232.5C 451.434,233.568 451.768,234.901 451.5,236.5C 452.5,236.5 453.5,236.5 454.5,236.5C 454.5,234.167 454.5,231.833 454.5,229.5C 450.629,229.815 446.962,229.482 443.5,228.5 Z"/></g>
<g><path style="opacity:1" fill="#e8edf6" d="M 374.5,237.5 C 394.173,237.535 413.84,237.869 433.5,238.5C 432.797,247.149 432.464,255.815 432.5,264.5C 431.094,264.973 430.427,265.973 430.5,267.5C 429.094,267.973 428.427,268.973 428.5,270.5C 426.05,272.629 424.383,275.296 423.5,278.5C 419.936,279.423 416.269,279.756 412.5,279.5C 396.197,278.545 379.863,277.879 363.5,277.5C 356.833,277.5 350.167,277.5 343.5,277.5C 343.267,274.458 342.267,271.792 340.5,269.5C 339.167,264.833 337.833,260.167 336.5,255.5C 342.5,252.833 348.5,250.167 354.5,247.5C 355.167,247.5 355.5,247.833 355.5,248.5C 351.584,251.467 347.251,253.967 342.5,256C 341.167,257 341.167,258 342.5,259C 347.691,259.297 352.857,259.797 358,260.5C 381.808,260.433 405.641,260.266 429.5,260C 430.642,253.916 430.809,247.749 430,241.5C 429.5,241 429,240.5 428.5,240C 417.172,239.5 405.838,239.333 394.5,239.5C 387.833,238.833 381.167,238.167 374.5,237.5 Z"/></g>
<g><path style="opacity:1" fill="#e9edf6" d="M 434.5,238.5 C 436.833,238.5 439.167,238.5 441.5,238.5C 439.2,250.092 442.2,259.925 450.5,268C 453.561,270.035 456.895,271.201 460.5,271.5C 460.608,273.514 459.942,275.18 458.5,276.5C 457.167,277.5 455.833,278.5 454.5,279.5C 449.167,279.5 443.833,279.5 438.5,279.5C 433.305,279.821 428.305,279.487 423.5,278.5C 425.95,276.371 427.617,273.704 428.5,270.5C 429.906,270.027 430.573,269.027 430.5,267.5C 431.906,267.027 432.573,266.027 432.5,264.5C 433.117,264.389 433.617,264.056 434,263.5C 434.5,255.173 434.666,246.84 434.5,238.5 Z"/></g>
<g><path style="opacity:1" fill="#ced2da" d="M 374.5,237.5 C 381.167,238.167 387.833,238.833 394.5,239.5C 387.159,239.334 379.826,239.5 372.5,240C 367.09,243.372 361.423,246.205 355.5,248.5C 355.5,247.833 355.167,247.5 354.5,247.5C 360.849,243.659 367.516,240.325 374.5,237.5 Z"/></g>
<g><path style="opacity:1" fill="#9b9ea2" d="M 433.5,238.5 C 433.833,238.5 434.167,238.5 434.5,238.5C 434.666,246.84 434.5,255.173 434,263.5C 433.617,264.056 433.117,264.389 432.5,264.5C 432.464,255.815 432.797,247.149 433.5,238.5 Z"/></g>
<g><path style="opacity:1" fill="#eaeff8" d="M 335.5,256.5 C 336.37,261.223 338.036,265.556 340.5,269.5C 340.767,271.965 341.434,274.299 342.5,276.5C 336.167,276.5 329.833,276.5 323.5,276.5C 320.482,276.665 317.482,276.498 314.5,276C 307.438,269.054 298.938,265.554 289,265.5C 279.847,267.684 270.513,269.018 261,269.5C 257.158,268.94 253.324,268.773 249.5,269C 248.733,270.47 248.067,271.97 247.5,273.5C 245.076,273.808 242.743,273.474 240.5,272.5C 242.18,269.14 243.847,265.807 245.5,262.5C 245.611,261.883 245.944,261.383 246.5,261C 251.489,260.501 256.489,260.334 261.5,260.5C 265.702,260.817 269.702,260.483 273.5,259.5C 294.167,258.5 314.834,257.5 335.5,256.5 Z"/></g>
<g><path style="opacity:1" fill="#595b5c" d="M 436.5,227.5 C 436.5,228.167 436.833,228.5 437.5,228.5C 437.5,231.167 437.5,233.833 437.5,236.5C 438.833,236.5 440.167,236.5 441.5,236.5C 441.5,237.167 441.5,237.833 441.5,238.5C 439.167,238.5 436.833,238.5 434.5,238.5C 434.167,238.5 433.833,238.5 433.5,238.5C 413.84,237.869 394.173,237.535 374.5,237.5C 367.516,240.325 360.849,243.659 354.5,247.5C 348.5,250.167 342.5,252.833 336.5,255.5C 335.833,255.5 335.5,255.833 335.5,256.5C 314.834,257.5 294.167,258.5 273.5,259.5C 269.958,259.813 266.625,259.479 263.5,258.5C 287.846,257.206 312.18,255.706 336.5,254C 348.92,248.192 361.253,242.192 373.5,236C 394.17,235.588 414.836,235.754 435.5,236.5C 435.19,233.287 435.523,230.287 436.5,227.5 Z"/></g>
<g><path style="opacity:1" fill="#838589" d="M 250.5,259.5 C 254.634,258.515 258.968,258.182 263.5,258.5C 266.625,259.479 269.958,259.813 273.5,259.5C 269.702,260.483 265.702,260.817 261.5,260.5C 258.038,259.518 254.371,259.185 250.5,259.5 Z"/></g>
<g><path style="opacity:1" fill="#484848" d="M 394.5,239.5 C 405.838,239.333 417.172,239.5 428.5,240C 429,240.5 429.5,241 430,241.5C 430.809,247.749 430.642,253.916 429.5,260C 405.641,260.266 381.808,260.433 358,260.5C 352.857,259.797 347.691,259.297 342.5,259C 341.167,258 341.167,257 342.5,256C 347.251,253.967 351.584,251.467 355.5,248.5C 361.423,246.205 367.09,243.372 372.5,240C 379.826,239.5 387.159,239.334 394.5,239.5 Z"/></g>
<g><path style="opacity:1" fill="#9fa2a3" d="M 420.5,259.5 C 411.318,259.827 402.318,259.493 393.5,258.5C 401.528,258.831 409.528,258.498 417.5,257.5C 416.197,255.063 414.53,252.896 412.5,251C 402.343,249.941 392.343,250.441 382.5,252.5C 383.058,251.21 384.058,250.377 385.5,250C 394.833,249.333 404.167,249.333 413.5,250C 416.051,253.044 418.384,256.211 420.5,259.5 Z"/></g>
<g><path style="opacity:1" fill="#dcdfe1" d="M 382.5,252.5 C 392.343,250.441 402.343,249.941 412.5,251C 414.53,252.896 416.197,255.063 417.5,257.5C 409.528,258.498 401.528,258.831 393.5,258.5C 382.495,258.667 371.495,258.5 360.5,258C 359.663,256.989 359.33,255.822 359.5,254.5C 360.15,254.804 360.817,255.137 361.5,255.5C 361.997,253.784 362.331,252.117 362.5,250.5C 364.171,252.51 364.838,254.843 364.5,257.5C 367.187,257.664 369.854,257.497 372.5,257C 375.736,255.214 379.07,253.714 382.5,252.5 Z"/></g>
<g><path style="opacity:1" fill="#eaeff0" d="M 420.5,259.5 C 418.384,256.211 416.051,253.044 413.5,250C 404.167,249.333 394.833,249.333 385.5,250C 384.058,250.377 383.058,251.21 382.5,252.5C 379.07,253.714 375.736,255.214 372.5,257C 369.854,257.497 367.187,257.664 364.5,257.5C 364.838,254.843 364.171,252.51 362.5,250.5C 362.331,252.117 361.997,253.784 361.5,255.5C 360.817,255.137 360.15,254.804 359.5,254.5C 359.201,252.396 359.534,250.396 360.5,248.5C 365.008,245.746 369.674,243.246 374.5,241C 392.497,240.925 410.497,241.092 428.5,241.5C 428.5,247.5 428.5,253.5 428.5,259.5C 425.833,259.5 423.167,259.5 420.5,259.5 Z"/></g>
<g><path style="opacity:1" fill="#565656" d="M 245.5,262.5 C 243.847,265.807 242.18,269.14 240.5,272.5C 242.743,273.474 245.076,273.808 247.5,273.5C 249.379,274.341 251.379,274.675 253.5,274.5C 259.455,275.363 265.455,275.697 271.5,275.5C 271.5,275.833 271.5,276.167 271.5,276.5C 265.833,276.5 260.167,276.5 254.5,276.5C 254.817,280.702 254.483,284.702 253.5,288.5C 253.813,284.958 253.479,281.625 252.5,278.5C 252.5,277.5 252.5,276.5 252.5,275.5C 250.5,275.5 248.5,275.5 246.5,275.5C 245.833,275.5 245.5,275.833 245.5,276.5C 239.46,275.08 233.46,273.913 227.5,273C 230.5,269.333 233.5,265.667 236.5,262C 239.555,261.366 242.555,261.532 245.5,262.5 Z"/></g>
<g><path style="opacity:1" fill="#888b8e" d="M 336.5,255.5 C 337.833,260.167 339.167,264.833 340.5,269.5C 338.036,265.556 336.37,261.223 335.5,256.5C 335.5,255.833 335.833,255.5 336.5,255.5 Z"/></g>
<g><path style="opacity:1" fill="#848789" d="M 432.5,264.5 C 432.573,266.027 431.906,267.027 430.5,267.5C 430.427,265.973 431.094,264.973 432.5,264.5 Z"/></g>
<g><path style="opacity:1" fill="#6f7073" d="M 323.5,276.5 C 323.158,277.338 322.492,277.672 321.5,277.5C 319.712,277.215 318.045,277.548 316.5,278.5C 320.479,283.46 322.479,289.126 322.5,295.5C 321.532,297.607 321.198,299.941 321.5,302.5C 322.552,302.351 323.552,302.517 324.5,303C 322.866,303.494 321.199,303.66 319.5,303.5C 319.795,301.265 319.461,299.265 318.5,297.5C 318.974,289.794 316.64,283.128 311.5,277.5C 311.167,276.5 310.5,275.833 309.5,275.5C 303.227,271.18 296.227,269.18 288.5,269.5C 276.621,271.648 264.621,272.815 252.5,273C 253.056,273.383 253.389,273.883 253.5,274.5C 251.379,274.675 249.379,274.341 247.5,273.5C 248.067,271.97 248.733,270.47 249.5,269C 253.324,268.773 257.158,268.94 261,269.5C 270.513,269.018 279.847,267.684 289,265.5C 298.938,265.554 307.438,269.054 314.5,276C 317.482,276.498 320.482,276.665 323.5,276.5 Z"/></g>
<g><path style="opacity:1" fill="#838588" d="M 430.5,267.5 C 430.573,269.027 429.906,270.027 428.5,270.5C 428.427,268.973 429.094,267.973 430.5,267.5 Z"/></g>
<g><path style="opacity:1" fill="#d9dee6" d="M 309.5,275.5 C 309.083,276.124 308.416,276.457 307.5,276.5C 299.048,271.9 290.048,270.4 280.5,272C 277.691,273.741 274.691,274.908 271.5,275.5C 265.455,275.697 259.455,275.363 253.5,274.5C 253.389,273.883 253.056,273.383 252.5,273C 264.621,272.815 276.621,271.648 288.5,269.5C 296.227,269.18 303.227,271.18 309.5,275.5 Z"/></g>
<g><path style="opacity:1" fill="#333333" d="M 309.5,275.5 C 310.5,275.833 311.167,276.5 311.5,277.5C 310.127,277.343 308.793,277.51 307.5,278C 313.392,283.166 316.725,289.666 317.5,297.5C 316.628,300.421 316.628,303.421 317.5,306.5C 330.011,306.171 342.345,306.505 354.5,307.5C 349.305,307.179 344.305,307.513 339.5,308.5C 330.858,309.718 322.192,310.718 313.5,311.5C 312.609,310.739 311.942,309.739 311.5,308.5C 316.289,288.404 308.455,277.071 288,274.5C 268.785,278.887 261.952,290.554 267.5,309.5C 263.818,309.665 260.152,309.499 256.5,309C 255.619,308.292 254.953,307.458 254.5,306.5C 257.335,306.251 260.168,306.251 263,306.5C 262.661,301.227 262.494,295.893 262.5,290.5C 262.491,288.692 262.991,287.025 264,285.5C 266.335,282.335 268.835,279.335 271.5,276.5C 271.5,276.167 271.5,275.833 271.5,275.5C 274.691,274.908 277.691,273.741 280.5,272C 290.048,270.4 299.048,271.9 307.5,276.5C 308.416,276.457 309.083,276.124 309.5,275.5 Z"/></g>
<g><path style="opacity:1" fill="#e0e5ec" d="M 471.5,272.5 C 484.171,272.333 496.838,272.5 509.5,273C 512.534,274.191 514.201,276.358 514.5,279.5C 508.588,281.456 502.255,282.123 495.5,281.5C 484.297,275.27 472.964,274.936 461.5,280.5C 460.761,280.631 460.094,280.464 459.5,280C 460.381,279.292 461.047,278.458 461.5,277.5C 461.833,277.5 462.167,277.5 462.5,277.5C 463.234,276.122 463.901,274.622 464.5,273C 466.81,272.503 469.143,272.337 471.5,272.5 Z"/></g>
<g><path style="opacity:1" fill="#87898c" d="M 428.5,270.5 C 427.617,273.704 425.95,276.371 423.5,278.5C 424.383,275.296 426.05,272.629 428.5,270.5 Z"/></g>
<g><path style="opacity:1" fill="#424343" d="M 453.5,223.5 C 452.993,224.859 451.993,225.859 450.5,226.5C 452.396,227.466 454.396,227.799 456.5,227.5C 456.5,230.833 456.5,234.167 456.5,237.5C 456.5,238.167 456.167,238.5 455.5,238.5C 453.801,238.34 452.134,238.506 450.5,239C 451.244,240.039 452.244,240.539 453.5,240.5C 453.5,241.167 453.167,241.5 452.5,241.5C 451.223,242.694 450.556,244.36 450.5,246.5C 450.637,248.883 450.971,251.217 451.5,253.5C 452.028,254.721 452.695,255.887 453.5,257C 465.485,257.903 477.485,258.403 489.5,258.5C 494.704,258.298 499.871,258.631 505,259.5C 508.197,259.337 509.031,258.004 507.5,255.5C 507.5,254.833 507.833,254.5 508.5,254.5C 511.134,256.54 511.134,258.707 508.5,261C 494.497,260.982 480.497,260.482 466.5,259.5C 463.167,259.667 459.833,259.833 456.5,260C 456.833,260.333 457.167,260.667 457.5,261C 462.066,262.309 466.733,262.809 471.5,262.5C 468.375,263.479 465.042,263.813 461.5,263.5C 456.738,263.037 453.238,260.704 451,256.5C 449.604,248.92 449.104,241.253 449.5,233.5C 447.167,233.5 444.833,233.5 442.5,233.5C 441.428,243.619 442.928,253.286 447,262.5C 450.547,266.714 455.047,269.214 460.5,270C 477.948,270.021 495.282,271.021 512.5,273C 514.049,274.214 515.215,275.714 516,277.5C 516.333,285.167 516.667,292.833 517,300.5C 518.102,302.381 519.435,304.048 521,305.5C 525.274,304.931 526.274,302.931 524,299.5C 523.667,292.5 523.333,285.5 523,278.5C 521.14,271.307 516.64,266.807 509.5,265C 498.839,264.5 488.172,264.333 477.5,264.5C 480.625,263.521 483.958,263.187 487.5,263.5C 495.507,263.334 503.507,263.5 511.5,264C 520.624,266.735 524.958,272.901 524.5,282.5C 525.833,282.5 527.167,282.5 528.5,282.5C 528.5,279.5 528.5,276.5 528.5,273.5C 531.5,273.5 534.5,273.5 537.5,273.5C 536.135,268.573 534.469,263.74 532.5,259C 513.9,253.85 495.233,249.017 476.5,244.5C 476.842,243.662 477.508,243.328 478.5,243.5C 485.821,242.917 493.154,242.417 500.5,242C 501.416,241.722 502.082,241.222 502.5,240.5C 502.5,239.833 502.5,239.167 502.5,238.5C 509.167,235.5 515.833,232.5 522.5,229.5C 526.744,227.891 530.744,228.224 534.5,230.5C 537.472,235.757 538.806,241.424 538.5,247.5C 539.283,252.434 537.95,256.601 534.5,260C 536.064,264.19 537.731,268.356 539.5,272.5C 541.045,273.452 542.712,273.785 544.5,273.5C 544.221,278.227 543.554,282.893 542.5,287.5C 541.5,287.5 540.5,287.5 539.5,287.5C 539.28,292.434 538.613,297.267 537.5,302C 534.118,302.176 530.785,302.676 527.5,303.5C 525.222,305.223 522.722,306.556 520,307.5C 517.144,306.495 514.644,307.162 512.5,309.5C 510.782,308.776 508.948,308.109 507,307.5C 506.499,303.49 505.999,299.49 505.5,295.5C 506.404,296.209 506.737,297.209 506.5,298.5C 509.167,298.167 511.833,297.833 514.5,297.5C 515.833,291.5 515.833,285.5 514.5,279.5C 514.201,276.358 512.534,274.191 509.5,273C 496.838,272.5 484.171,272.333 471.5,272.5C 468.635,271.217 465.635,271.217 462.5,272.5C 461.566,274.095 461.566,275.761 462.5,277.5C 462.167,277.5 461.833,277.5 461.5,277.5C 460.791,276.596 459.791,276.263 458.5,276.5C 459.942,275.18 460.608,273.514 460.5,271.5C 456.895,271.201 453.561,270.035 450.5,268C 442.2,259.925 439.2,250.092 441.5,238.5C 441.5,237.833 441.5,237.167 441.5,236.5C 441.5,234.833 441.5,233.167 441.5,231.5C 444.713,231.19 447.713,231.523 450.5,232.5C 450.5,234.167 450.5,235.833 450.5,237.5C 452.167,237.5 453.833,237.5 455.5,237.5C 455.5,234.5 455.5,231.5 455.5,228.5C 451.5,228.5 447.5,228.5 443.5,228.5C 441.5,228.5 439.5,228.5 437.5,228.5C 436.833,228.5 436.5,228.167 436.5,227.5C 437.609,226.71 438.942,226.21 440.5,226C 438.866,225.506 437.199,225.34 435.5,225.5C 441.074,223.547 447.074,222.88 453.5,223.5 Z"/></g>
<g><path style="opacity:1" fill="#7a7c7d" d="M 471.5,272.5 C 469.143,272.337 466.81,272.503 464.5,273C 463.901,274.622 463.234,276.122 462.5,277.5C 461.566,275.761 461.566,274.095 462.5,272.5C 465.635,271.217 468.635,271.217 471.5,272.5 Z"/></g>
<g><path style="opacity:1" fill="#707274" d="M 471.5,262.5 C 477.026,262.179 482.36,262.512 487.5,263.5C 483.958,263.187 480.625,263.521 477.5,264.5C 471.974,264.821 466.64,264.488 461.5,263.5C 465.042,263.813 468.375,263.479 471.5,262.5 Z"/></g>
<g><path style="opacity:1" fill="#e3e7f0" d="M 455.5,238.5 C 462.211,241.238 469.211,243.238 476.5,244.5C 495.233,249.017 513.9,253.85 532.5,259C 534.469,263.74 536.135,268.573 537.5,273.5C 534.5,273.5 531.5,273.5 528.5,273.5C 528.5,276.5 528.5,279.5 528.5,282.5C 527.167,282.5 525.833,282.5 524.5,282.5C 524.958,272.901 520.624,266.735 511.5,264C 503.507,263.5 495.507,263.334 487.5,263.5C 482.36,262.512 477.026,262.179 471.5,262.5C 466.733,262.809 462.066,262.309 457.5,261C 457.167,260.667 456.833,260.333 456.5,260C 459.833,259.833 463.167,259.667 466.5,259.5C 480.497,260.482 494.497,260.982 508.5,261C 511.134,258.707 511.134,256.54 508.5,254.5C 490.338,249.595 472.005,244.929 453.5,240.5C 452.244,240.539 451.244,240.039 450.5,239C 452.134,238.506 453.801,238.34 455.5,238.5 Z"/></g>
<g><path style="opacity:1" fill="#e7cd8f" d="M 480.5,253.5 C 477.668,256.378 476.001,255.711 475.5,251.5C 476.496,251.414 477.329,251.748 478,252.5C 479.22,250.143 480.053,250.476 480.5,253.5 Z"/></g>
<g><path style="opacity:1" fill="#ebf0f0" d="M 452.5,241.5 C 470.529,246.924 488.863,251.591 507.5,255.5C 509.031,258.004 508.197,259.337 505,259.5C 499.871,258.631 494.704,258.298 489.5,258.5C 486.576,256.845 483.576,255.178 480.5,253.5C 480.053,250.476 479.22,250.143 478,252.5C 477.329,251.748 476.496,251.414 475.5,251.5C 474.504,251.414 473.671,251.748 473,252.5C 472.667,251.833 472.333,251.167 472,250.5C 470.956,251.623 470.29,252.956 470,254.5C 469.51,253.207 469.343,251.873 469.5,250.5C 467.002,251.082 464.669,251.082 462.5,250.5C 462.62,247.795 461.62,247.128 459.5,248.5C 458.833,247.833 458.167,247.167 457.5,246.5C 456.534,248.396 456.201,250.396 456.5,252.5C 455.209,252.263 454.209,252.596 453.5,253.5C 452.833,253.5 452.167,253.5 451.5,253.5C 450.971,251.217 450.637,248.883 450.5,246.5C 450.556,244.36 451.223,242.694 452.5,241.5 Z"/></g>
<g><path style="opacity:1" fill="#d7d8d4" d="M 462.5,250.5 C 464.669,251.082 467.002,251.082 469.5,250.5C 469.343,251.873 469.51,253.207 470,254.5C 470.29,252.956 470.956,251.623 472,250.5C 472.333,251.167 472.667,251.833 473,252.5C 473.671,251.748 474.504,251.414 475.5,251.5C 476.001,255.711 477.668,256.378 480.5,253.5C 483.576,255.178 486.576,256.845 489.5,258.5C 477.485,258.403 465.485,257.903 453.5,257C 452.695,255.887 452.028,254.721 451.5,253.5C 452.167,253.5 452.833,253.5 453.5,253.5C 456.144,253.16 458.477,253.827 460.5,255.5C 461.17,253.709 461.837,252.042 462.5,250.5 Z"/></g>
<g><path style="opacity:1" fill="#e8cd8c" d="M 462.5,250.5 C 461.837,252.042 461.17,253.709 460.5,255.5C 458.477,253.827 456.144,253.16 453.5,253.5C 454.209,252.596 455.209,252.263 456.5,252.5C 456.201,250.396 456.534,248.396 457.5,246.5C 458.167,247.167 458.833,247.833 459.5,248.5C 461.62,247.128 462.62,247.795 462.5,250.5 Z"/></g>
<g><path style="opacity:1" fill="#565656" d="M 453.5,240.5 C 472.005,244.929 490.338,249.595 508.5,254.5C 507.833,254.5 507.5,254.833 507.5,255.5C 488.863,251.591 470.529,246.924 452.5,241.5C 453.167,241.5 453.5,241.167 453.5,240.5 Z"/></g>
<g><path style="opacity:1" fill="#a5a8ae" d="M 466.5,235.5 C 467.605,236.6 468.938,237.267 470.5,237.5C 470.5,238.5 470.5,239.5 470.5,240.5C 471.992,241.967 470.326,241.8 465.5,240C 464.944,239.617 464.611,239.117 464.5,238.5C 465.551,237.778 466.218,236.778 466.5,235.5 Z"/></g>
<g><path style="opacity:1" fill="#dce4ef" d="M 466.5,235.5 C 466.218,236.778 465.551,237.778 464.5,238.5C 462.647,239.614 462.147,238.948 463,236.5C 464.011,235.663 465.178,235.33 466.5,235.5 Z"/></g>
<g><path style="opacity:1" fill="#dfe8f3" d="M 479.5,241.5 C 477.883,242.038 476.216,242.371 474.5,242.5C 474.714,240.856 474.38,239.356 473.5,238C 476.901,238.266 478.567,236.766 478.5,233.5C 480.527,233.338 482.527,233.505 484.5,234C 485.022,234.561 485.355,235.228 485.5,236C 483.27,237.609 481.27,239.443 479.5,241.5 Z"/></g>
<g><path style="opacity:1" fill="#dce0e8" d="M 470.5,237.5 C 468.938,237.267 467.605,236.6 466.5,235.5C 463.898,234.031 461.731,234.698 460,237.5C 459.805,236.181 459.972,234.847 460.5,233.5C 465.217,231.529 468.551,232.862 470.5,237.5 Z"/></g>
<g><path style="opacity:1" fill="#e3e7f0" d="M 461.5,263.5 C 466.64,264.488 471.974,264.821 477.5,264.5C 488.172,264.333 498.839,264.5 509.5,265C 516.64,266.807 521.14,271.307 523,278.5C 523.333,285.5 523.667,292.5 524,299.5C 526.274,302.931 525.274,304.931 521,305.5C 519.435,304.048 518.102,302.381 517,300.5C 516.667,292.833 516.333,285.167 516,277.5C 515.215,275.714 514.049,274.214 512.5,273C 495.282,271.021 477.948,270.021 460.5,270C 455.047,269.214 450.547,266.714 447,262.5C 442.928,253.286 441.428,243.619 442.5,233.5C 444.833,233.5 447.167,233.5 449.5,233.5C 449.104,241.253 449.604,248.92 451,256.5C 453.238,260.704 456.738,263.037 461.5,263.5 Z"/></g>
<g><path style="opacity:1" fill="#a2a5aa" d="M 442.5,225.5 C 444.924,225.192 447.257,225.526 449.5,226.5C 448.333,226.833 447.167,227.167 446,227.5C 444.319,227.392 443.152,226.725 442.5,225.5 Z"/></g>
<g><path style="opacity:1" fill="#dde2e2" d="M 246.5,275.5 C 248.5,275.5 250.5,275.5 252.5,275.5C 252.5,276.5 252.5,277.5 252.5,278.5C 252.5,281.5 252.5,284.5 252.5,287.5C 250.5,287.5 248.5,287.5 246.5,287.5C 246.5,283.5 246.5,279.5 246.5,275.5 Z"/></g>
<g><path style="opacity:1" fill="#3e3e3e" d="M 250.5,259.5 C 254.371,259.185 258.038,259.518 261.5,260.5C 256.489,260.334 251.489,260.501 246.5,261C 245.944,261.383 245.611,261.883 245.5,262.5C 242.555,261.532 239.555,261.366 236.5,262C 233.5,265.667 230.5,269.333 227.5,273C 233.46,273.913 239.46,275.08 245.5,276.5C 245.5,280.5 245.5,284.5 245.5,288.5C 248.059,288.802 250.393,288.468 252.5,287.5C 252.5,284.5 252.5,281.5 252.5,278.5C 253.479,281.625 253.813,284.958 253.5,288.5C 250.695,289.319 247.695,289.819 244.5,290C 247.469,292.009 250.802,292.842 254.5,292.5C 257.441,292.379 260.108,291.713 262.5,290.5C 262.494,295.893 262.661,301.227 263,306.5C 260.168,306.251 257.335,306.251 254.5,306.5C 247.446,303.984 240.112,302.151 232.5,301C 231.736,298.931 231.236,296.764 231,294.5C 228.5,293.333 226.667,291.5 225.5,289C 223.866,288.506 222.199,288.34 220.5,288.5C 220.5,287.5 220.5,286.5 220.5,285.5C 219.5,285.5 218.5,285.5 217.5,285.5C 217.5,282.5 217.5,279.5 217.5,276.5C 218.5,276.5 219.5,276.5 220.5,276.5C 220.5,275.5 220.5,274.5 220.5,273.5C 222.199,273.66 223.866,273.494 225.5,273C 228.833,268.667 232.167,264.333 235.5,260C 240.489,259.501 245.489,259.334 250.5,259.5 Z"/></g>
<g><path style="opacity:1" fill="#bdc2c6" d="M 271.5,276.5 C 268.835,279.335 266.335,282.335 264,285.5C 262.991,287.025 262.491,288.692 262.5,290.5C 260.108,291.713 257.441,292.379 254.5,292.5C 250.802,292.842 247.469,292.009 244.5,290C 247.695,289.819 250.695,289.319 253.5,288.5C 254.483,284.702 254.817,280.702 254.5,276.5C 260.167,276.5 265.833,276.5 271.5,276.5 Z"/></g>
<g><path style="opacity:1" fill="#96999c" d="M 323.5,276.5 C 329.833,276.5 336.167,276.5 342.5,276.5C 341.833,277.167 341.167,277.833 340.5,278.5C 333.978,278.823 327.645,278.49 321.5,277.5C 322.492,277.672 323.158,277.338 323.5,276.5 Z"/></g>
<g><path style="opacity:1" fill="#b6bbbf" d="M 311.5,277.5 C 316.64,283.128 318.974,289.794 318.5,297.5C 318.167,297.5 317.833,297.5 317.5,297.5C 316.725,289.666 313.392,283.166 307.5,278C 308.793,277.51 310.127,277.343 311.5,277.5 Z"/></g>
<g><path style="opacity:1" fill="#bdc1c5" d="M 321.5,277.5 C 327.645,278.49 333.978,278.823 340.5,278.5C 341.675,278.281 342.675,278.614 343.5,279.5C 345.74,285.39 348.073,291.223 350.5,297C 370.848,297.464 391.182,297.798 411.5,298C 413.661,295.851 414.828,293.351 415,290.5C 413.833,292.167 412.667,293.833 411.5,295.5C 391.168,296.596 370.835,296.596 350.5,295.5C 348.998,289.827 346.998,284.327 344.5,279C 351.013,278.828 357.347,278.328 363.5,277.5C 379.863,277.879 396.197,278.545 412.5,279.5C 415.563,280.201 418.73,280.868 422,281.5C 426.737,280.531 431.57,280.197 436.5,280.5C 440.97,281.486 445.637,281.819 450.5,281.5C 451.043,281.56 451.376,281.893 451.5,282.5C 447.204,287.718 444.871,293.718 444.5,300.5C 442.167,300.5 439.833,300.5 437.5,300.5C 399.165,299.896 360.832,299.229 322.5,298.5C 322.5,297.5 322.5,296.5 322.5,295.5C 322.479,289.126 320.479,283.46 316.5,278.5C 318.045,277.548 319.712,277.215 321.5,277.5 Z"/></g>
<g><path style="opacity:1" fill="#5e6060" d="M 423.5,278.5 C 428.305,279.487 433.305,279.821 438.5,279.5C 438.158,280.338 437.492,280.672 436.5,280.5C 431.57,280.197 426.737,280.531 422,281.5C 418.73,280.868 415.563,280.201 412.5,279.5C 416.269,279.756 419.936,279.423 423.5,278.5 Z"/></g>
<g><path style="opacity:1" fill="#949697" d="M 246.5,275.5 C 246.5,279.5 246.5,283.5 246.5,287.5C 248.5,287.5 250.5,287.5 252.5,287.5C 250.393,288.468 248.059,288.802 245.5,288.5C 245.5,284.5 245.5,280.5 245.5,276.5C 245.5,275.833 245.833,275.5 246.5,275.5 Z"/></g>
<g><path style="opacity:1" fill="#909396" d="M 514.5,279.5 C 515.833,285.5 515.833,291.5 514.5,297.5C 514.5,292.833 514.5,288.167 514.5,283.5C 509.305,283.179 504.305,283.513 499.5,284.5C 498.128,283.488 496.795,282.488 495.5,281.5C 502.255,282.123 508.588,281.456 514.5,279.5 Z"/></g>
<g><path style="opacity:1" fill="#bec3c7" d="M 514.5,297.5 C 511.833,297.833 509.167,298.167 506.5,298.5C 506.737,297.209 506.404,296.209 505.5,295.5C 504.274,291.38 502.274,287.713 499.5,284.5C 504.305,283.513 509.305,283.179 514.5,283.5C 514.5,288.167 514.5,292.833 514.5,297.5 Z"/></g>
<g><path style="opacity:1" fill="#babec2" d="M 524.5,283.5 C 526.716,283.275 528.383,284.108 529.5,286C 532.146,286.497 534.813,286.664 537.5,286.5C 537.425,289.206 537.092,291.873 536.5,294.5C 532.5,294.833 528.5,295.167 524.5,295.5C 524.5,291.5 524.5,287.5 524.5,283.5 Z"/></g>
<g><path style="opacity:1" fill="#343434" d="M 495.5,281.5 C 496.795,282.488 498.128,283.488 499.5,284.5C 502.274,287.713 504.274,291.38 505.5,295.5C 505.999,299.49 506.499,303.49 507,307.5C 508.948,308.109 510.782,308.776 512.5,309.5C 509.083,311.372 505.417,312.372 501.5,312.5C 505.272,292.636 497.106,281.636 477,279.5C 458.647,283.872 451.813,295.205 456.5,313.5C 451.156,313.666 445.823,313.499 440.5,313C 429.71,310.001 418.71,308.835 407.5,309.5C 415.65,308.507 423.983,308.174 432.5,308.5C 438.167,309.075 443.833,309.242 449.5,309C 450.435,306.619 450.768,304.119 450.5,301.5C 451.26,293.758 454.594,287.425 460.5,282.5C 461.338,282.158 461.672,281.492 461.5,280.5C 472.964,274.936 484.297,275.27 495.5,281.5 Z"/></g>
<g><path style="opacity:1" fill="#585959" d="M 227.5,290.5 C 232.316,289.35 237.316,289.184 242.5,290C 248.833,295 255.167,300 261.5,305C 252.602,303.238 243.602,301.571 234.5,300C 233.736,297.931 233.236,295.764 233,293.5C 231.22,292.361 229.386,291.361 227.5,290.5 Z"/></g>
<g><path style="opacity:1" fill="#6c6e70" d="M 458.5,276.5 C 459.791,276.263 460.791,276.596 461.5,277.5C 461.047,278.458 460.381,279.292 459.5,280C 460.094,280.464 460.761,280.631 461.5,280.5C 461.672,281.492 461.338,282.158 460.5,282.5C 458.623,281.375 456.79,281.709 455,283.5C 452.087,287.207 449.921,291.207 448.5,295.5C 447.497,298.384 447.164,302.051 447.5,306.5C 445.712,306.785 444.045,306.452 442.5,305.5C 443.325,304.614 444.325,304.281 445.5,304.5C 445.5,303.5 445.5,302.5 445.5,301.5C 442.615,301.806 439.948,301.473 437.5,300.5C 439.833,300.5 442.167,300.5 444.5,300.5C 444.871,293.718 447.204,287.718 451.5,282.5C 451.376,281.893 451.043,281.56 450.5,281.5C 451.833,280.833 453.167,280.167 454.5,279.5C 455.833,278.5 457.167,277.5 458.5,276.5 Z"/></g>
<g><path style="opacity:1" fill="#797b7c" d="M 340.5,269.5 C 342.267,271.792 343.267,274.458 343.5,277.5C 350.167,277.5 356.833,277.5 363.5,277.5C 357.347,278.328 351.013,278.828 344.5,279C 346.998,284.327 348.998,289.827 350.5,295.5C 370.835,296.596 391.168,296.596 411.5,295.5C 412.667,293.833 413.833,292.167 415,290.5C 414.828,293.351 413.661,295.851 411.5,298C 391.182,297.798 370.848,297.464 350.5,297C 348.073,291.223 345.74,285.39 343.5,279.5C 342.675,278.614 341.675,278.281 340.5,278.5C 341.167,277.833 341.833,277.167 342.5,276.5C 341.434,274.299 340.767,271.965 340.5,269.5 Z"/></g>
<g><path style="opacity:1" fill="#949a9f" d="M 279.5,321.5 C 280.473,321.987 281.473,322.487 282.5,323C 259.836,323.5 237.169,323.667 214.5,323.5C 236.167,322.833 257.833,322.167 279.5,321.5 Z"/></g>
<g><path style="opacity:1" fill="#434444" d="M 167.5,323.5 C 179.838,323.333 192.171,323.5 204.5,324C 207.167,326 207.167,328 204.5,330C 192.167,330.667 179.833,330.667 167.5,330C 164.939,327.844 164.939,325.677 167.5,323.5 Z"/></g>
<g><path style="opacity:1" fill="#444545" d="M 313.5,311.5 C 312.448,311.351 311.448,311.517 310.5,312C 307.79,316.848 303.79,320.015 298.5,321.5C 297.527,321.987 296.527,322.487 295.5,323C 349.904,323.831 403.571,323.664 456.5,322.5C 456.751,320.83 457.418,319.33 458.5,318C 457.418,316.67 456.751,315.17 456.5,313.5C 451.813,295.205 458.647,283.872 477,279.5C 497.106,281.636 505.272,292.636 501.5,312.5C 500.906,314.855 499.906,317.022 498.5,319C 499.573,320.416 499.573,321.75 498.5,323C 529.167,323.333 559.833,323.667 590.5,324C 591.833,325.667 591.833,327.333 590.5,329C 464.833,329.667 339.167,329.667 213.5,329C 212.02,326.765 212.353,324.932 214.5,323.5C 237.169,323.667 259.836,323.5 282.5,323C 281.473,322.487 280.473,321.987 279.5,321.5C 273.811,319.145 269.811,315.145 267.5,309.5C 261.952,290.554 268.785,278.887 288,274.5C 308.455,277.071 316.289,288.404 311.5,308.5C 311.942,309.739 312.609,310.739 313.5,311.5 Z"/></g>
<g><path style="opacity:1" fill="#93999e" d="M 298.5,321.5 C 350.997,322.499 403.664,322.832 456.5,322.5C 403.571,323.664 349.904,323.831 295.5,323C 296.527,322.487 297.527,321.987 298.5,321.5 Z"/></g>
<g><path style="opacity:1" fill="#5c5d5e" d="M 274.5,297.5 C 274.637,305.96 278.637,311.627 286.5,314.5C 289.692,315.421 293.025,315.588 296.5,315C 282.543,318.519 274.21,313.186 271.5,299C 271.833,295.487 272.999,292.321 275,289.5C 274.862,291.49 274.362,293.49 273.5,295.5C 273.543,296.416 273.876,297.083 274.5,297.5 Z"/></g>
<g><path style="opacity:1" fill="#e4edf8" d="M 339.5,308.5 C 347.5,308.5 355.5,308.5 363.5,308.5C 369.5,308.5 375.5,308.5 381.5,308.5C 389.984,309.493 398.651,309.826 407.5,309.5C 418.71,308.835 429.71,310.001 440.5,313C 445.823,313.499 451.156,313.666 456.5,313.5C 456.751,315.17 457.418,316.67 458.5,318C 457.418,319.33 456.751,320.83 456.5,322.5C 403.664,322.832 350.997,322.499 298.5,321.5C 303.79,320.015 307.79,316.848 310.5,312C 311.448,311.517 312.448,311.351 313.5,311.5C 322.192,310.718 330.858,309.718 339.5,308.5 Z"/></g>
<g><path style="opacity:1" fill="#66686a" d="M 432.5,308.5 C 423.983,308.174 415.65,308.507 407.5,309.5C 398.651,309.826 389.984,309.493 381.5,308.5C 398.665,307.552 415.665,307.552 432.5,308.5 Z"/></g>
<g><path style="opacity:1" fill="#656769" d="M 363.5,308.5 C 355.5,308.5 347.5,308.5 339.5,308.5C 344.305,307.513 349.305,307.179 354.5,307.5C 365.807,306.423 377.14,306.257 388.5,307C 379.99,307.171 371.657,307.671 363.5,308.5 Z"/></g>
<g><path style="opacity:1" fill="#828587" d="M 463.5,299.5 C 462.681,302.305 462.181,305.305 462,308.5C 461.146,304.375 461.48,300.375 463,296.5C 463.483,297.448 463.649,298.448 463.5,299.5 Z"/></g>
<g><path style="opacity:1" fill="#444545" d="M 448.5,295.5 C 448.025,298.082 448.692,300.082 450.5,301.5C 450.768,304.119 450.435,306.619 449.5,309C 443.833,309.242 438.167,309.075 432.5,308.5C 415.665,307.552 398.665,307.552 381.5,308.5C 375.5,308.5 369.5,308.5 363.5,308.5C 371.657,307.671 379.99,307.171 388.5,307C 377.14,306.257 365.807,306.423 354.5,307.5C 342.345,306.505 330.011,306.171 317.5,306.5C 316.628,303.421 316.628,300.421 317.5,297.5C 317.833,297.5 318.167,297.5 318.5,297.5C 319.461,299.265 319.795,301.265 319.5,303.5C 321.199,303.66 322.866,303.494 324.5,303C 323.552,302.517 322.552,302.351 321.5,302.5C 321.198,299.941 321.532,297.607 322.5,295.5C 322.5,296.5 322.5,297.5 322.5,298.5C 360.832,299.229 399.165,299.896 437.5,300.5C 439.948,301.473 442.615,301.806 445.5,301.5C 445.5,302.5 445.5,303.5 445.5,304.5C 444.325,304.281 443.325,304.614 442.5,305.5C 444.045,306.452 445.712,306.785 447.5,306.5C 447.164,302.051 447.497,298.384 448.5,295.5 Z"/></g>
<g><path style="opacity:1" fill="#797a7d" d="M 384.5,303.5 C 403.18,303.767 421.846,304.434 440.5,305.5C 437,305.833 433.5,306.167 430,306.5C 414.466,306.368 399.299,305.368 384.5,303.5 Z"/></g>
<g><path style="opacity:1" fill="#77787b" d="M 326.5,303.5 C 345.35,302.211 364.35,302.378 383.5,304C 364.483,304.754 345.483,304.588 326.5,303.5 Z"/></g>
<g><path style="opacity:1" fill="#bfc3c7" d="M 463.5,299.5 C 467.646,291.262 474.313,288.095 483.5,290C 493.547,294.937 496.047,302.437 491,312.5C 484.788,319.009 477.621,320.175 469.5,316C 464.64,311.592 462.64,306.092 463.5,299.5 Z"/></g>
<g><path style="opacity:1" fill="#bfc4c7" d="M 286.5,314.5 C 278.637,311.627 274.637,305.96 274.5,297.5C 276.814,287.337 283.147,283.171 293.5,285C 300.012,287.346 303.345,292.013 303.5,299C 302.823,309.507 297.156,314.673 286.5,314.5 Z"/></g>
<g><path style="opacity:1" fill="#b6bbbe" d="M 460.5,282.5 C 454.594,287.425 451.26,293.758 450.5,301.5C 448.692,300.082 448.025,298.082 448.5,295.5C 449.921,291.207 452.087,287.207 455,283.5C 456.79,281.709 458.623,281.375 460.5,282.5 Z"/></g>
<g><path style="opacity:1" fill="#95989c" d="M 438.5,279.5 C 443.833,279.5 449.167,279.5 454.5,279.5C 453.167,280.167 451.833,280.833 450.5,281.5C 445.637,281.819 440.97,281.486 436.5,280.5C 437.492,280.672 438.158,280.338 438.5,279.5 Z"/></g>
<g><path style="opacity:1" fill="#454646" d="M 599.5,323.5 C 604.511,323.334 609.511,323.501 614.5,324C 617.167,326 617.167,328 614.5,330C 609.5,330.667 604.5,330.667 599.5,330C 596.939,327.844 596.939,325.677 599.5,323.5 Z"/></g>
<g><path style="opacity:1" fill="#4b4d4d" d="M 367.5,356.5 C 368.833,356.5 370.167,356.5 371.5,356.5C 371.335,359.85 371.502,363.183 372,366.5C 375.294,363.689 378.294,364.022 381,367.5C 381.499,371.821 381.666,376.154 381.5,380.5C 380.167,380.5 378.833,380.5 377.5,380.5C 377.665,376.818 377.499,373.152 377,369.5C 375.333,368.167 373.667,368.167 372,369.5C 371.501,373.152 371.335,376.818 371.5,380.5C 370.167,380.5 368.833,380.5 367.5,380.5C 367.5,372.5 367.5,364.5 367.5,356.5 Z"/></g>
<g><path style="opacity:1" fill="#4c4d4e" d="M 185.5,357.5 C 201.155,356.974 205.822,363.808 199.5,378C 186.109,384.067 179.275,379.9 179,365.5C 180.479,362.172 182.645,359.506 185.5,357.5 Z"/></g>
<g><path style="opacity:1" fill="#4b4d4d" d="M 278.5,357.5 C 281.187,357.336 283.854,357.503 286.5,358C 288.902,359.471 288.736,360.971 286,362.5C 283.936,361.409 281.769,361.242 279.5,362C 278.167,363.333 278.167,364.667 279.5,366C 283.207,366.936 286.374,368.769 289,371.5C 290.173,375.305 289.007,378.139 285.5,380C 281.142,381.075 277.142,380.408 273.5,378C 274.898,375.438 276.565,375.105 278.5,377C 283.656,378.512 285.323,376.846 283.5,372C 279.868,371.253 277.034,369.42 275,366.5C 273.98,362.553 275.147,359.553 278.5,357.5 Z"/></g>
<g><path style="opacity:1" fill="#878c90" d="M 261.5,358.5 C 260.5,358.5 259.5,358.5 258.5,358.5C 258.5,363.5 258.5,368.5 258.5,373.5C 257.512,368.36 257.179,363.026 257.5,357.5C 259.099,357.232 260.432,357.566 261.5,358.5 Z"/></g>
<g><path style="opacity:1" fill="#444545" d="M 261.5,358.5 C 261.5,363.5 261.5,368.5 261.5,373.5C 260.5,373.5 259.5,373.5 258.5,373.5C 258.5,368.5 258.5,363.5 258.5,358.5C 259.5,358.5 260.5,358.5 261.5,358.5 Z"/></g>
<g><path style="opacity:1" fill="#5b5d5f" d="M 385.5,357.5 C 389.161,357.35 390.161,358.85 388.5,362C 384.707,362.487 383.707,360.987 385.5,357.5 Z"/></g>
<g><path style="opacity:1" fill="#e1eaf5" d="M 186.5,361.5 C 190.257,361.071 193.757,361.737 197,363.5C 200.544,372.941 197.377,377.441 187.5,377C 182.568,372.116 182.235,366.949 186.5,361.5 Z"/></g>
<g><path style="opacity:1" fill="#4c4e4e" d="M 357.5,360.5 C 358.833,360.5 360.167,360.5 361.5,360.5C 361.5,362.167 361.5,363.833 361.5,365.5C 362.833,365.5 364.167,365.5 365.5,365.5C 365.5,366.5 365.5,367.5 365.5,368.5C 364.167,368.5 362.833,368.5 361.5,368.5C 361.5,371.5 361.5,374.5 361.5,377.5C 362.833,377.5 364.167,377.5 365.5,377.5C 365.5,378.5 365.5,379.5 365.5,380.5C 363.076,380.808 360.743,380.474 358.5,379.5C 357.574,375.906 357.241,372.24 357.5,368.5C 356.5,368.5 355.5,368.5 354.5,368.5C 354.5,367.5 354.5,366.5 354.5,365.5C 355.5,365.5 356.5,365.5 357.5,365.5C 357.5,363.833 357.5,362.167 357.5,360.5 Z"/></g>
<g><path style="opacity:1" fill="#979ca1" d="M 500.5,360.5 C 500.5,362.167 500.5,363.833 500.5,365.5C 499.5,365.5 498.5,365.5 497.5,365.5C 497.5,366.5 497.5,367.5 497.5,368.5C 496.566,367.432 496.232,366.099 496.5,364.5C 497.5,364.5 498.5,364.5 499.5,364.5C 499.232,362.901 499.566,361.568 500.5,360.5 Z"/></g>
<g><path style="opacity:1" fill="#474949" d="M 500.5,360.5 C 501.5,360.5 502.5,360.5 503.5,360.5C 503.5,362.167 503.5,363.833 503.5,365.5C 504.833,365.5 506.167,365.5 507.5,365.5C 507.5,366.5 507.5,367.5 507.5,368.5C 506.167,368.5 504.833,368.5 503.5,368.5C 503.336,371.187 503.503,373.854 504,376.5C 505.356,377.38 506.856,377.714 508.5,377.5C 508.5,378.5 508.5,379.5 508.5,380.5C 505.881,380.768 503.381,380.435 501,379.5C 500.501,375.848 500.335,372.182 500.5,368.5C 499.5,368.5 498.5,368.5 497.5,368.5C 497.5,367.5 497.5,366.5 497.5,365.5C 498.5,365.5 499.5,365.5 500.5,365.5C 500.5,363.833 500.5,362.167 500.5,360.5 Z"/></g>
<g><path style="opacity:1" fill="#4d4e4f" d="M 210.5,364.5 C 218.372,364.201 221.872,367.868 221,375.5C 218.459,380.069 214.625,381.569 209.5,380C 202.754,374.512 203.088,369.346 210.5,364.5 Z"/></g>
<g><path style="opacity:1" fill="#4a4c4c" d="M 230.5,364.5 C 240.536,365.16 243.203,369.993 238.5,379C 235.577,380.71 232.577,380.877 229.5,379.5C 228.52,382.086 228.187,384.753 228.5,387.5C 227.167,387.5 225.833,387.5 224.5,387.5C 224.5,380.167 224.5,372.833 224.5,365.5C 226.124,365.36 227.29,366.027 228,367.5C 229.045,366.627 229.878,365.627 230.5,364.5 Z"/></g>
<g><path style="opacity:1" fill="#505152" d="M 246.5,364.5 C 249.564,364.144 252.231,364.977 254.5,367C 253.667,367.833 252.833,368.667 252,369.5C 250.069,366.895 248.236,366.895 246.5,369.5C 249.055,370.76 251.555,372.094 254,373.5C 255.338,378.329 253.504,380.662 248.5,380.5C 246.192,380.635 244.192,379.969 242.5,378.5C 243.328,377.585 244.328,376.919 245.5,376.5C 247.071,377.309 248.738,377.643 250.5,377.5C 250.5,376.5 250.5,375.5 250.5,374.5C 244.445,374.948 242.279,372.281 244,366.5C 244.995,365.934 245.828,365.267 246.5,364.5 Z"/></g>
<g><path style="opacity:1" fill="#4c4e4e" d="M 297.5,364.5 C 305.033,364.529 308.533,368.196 308,375.5C 305.459,380.069 301.625,381.569 296.5,380C 292.139,377.774 290.639,374.274 292,369.5C 293.73,367.598 295.563,365.931 297.5,364.5 Z"/></g>
<g><path style="opacity:1" fill="#4f5152" d="M 317.5,364.5 C 320.368,364.085 322.535,365.085 324,367.5C 327.333,363.5 330.667,363.5 334,367.5C 334.499,371.821 334.666,376.154 334.5,380.5C 333.167,380.5 331.833,380.5 330.5,380.5C 330.5,376.5 330.5,372.5 330.5,368.5C 328.278,368.178 326.444,368.845 325,370.5C 324.502,373.817 324.335,377.15 324.5,380.5C 323.167,380.5 321.833,380.5 320.5,380.5C 320.5,376.5 320.5,372.5 320.5,368.5C 318.278,368.178 316.444,368.845 315,370.5C 314.502,373.817 314.335,377.15 314.5,380.5C 313.5,380.5 312.5,380.5 311.5,380.5C 311.5,375.5 311.5,370.5 311.5,365.5C 312.822,365.33 313.989,365.663 315,366.5C 315.995,365.934 316.828,365.267 317.5,364.5 Z"/></g>
<g><path style="opacity:1" fill="#4b4c4d" d="M 352.5,370.5 C 352.5,371.5 352.5,372.5 352.5,373.5C 348.629,373.185 344.962,373.518 341.5,374.5C 343.569,377.679 346.403,378.346 350,376.5C 351.059,376.63 351.892,377.13 352.5,378C 342.647,383.461 337.813,380.628 338,369.5C 343.677,362.488 348.51,362.821 352.5,370.5 Z"/></g>
<g><path style="opacity:1" fill="#4d4e4f" d="M 385.5,365.5 C 386.833,365.5 388.167,365.5 389.5,365.5C 389.5,370.5 389.5,375.5 389.5,380.5C 388.167,380.5 386.833,380.5 385.5,380.5C 385.5,375.5 385.5,370.5 385.5,365.5 Z"/></g>
<g><path style="opacity:1" fill="#84898d" d="M 396.5,365.5 C 395.5,365.5 394.5,365.5 393.5,365.5C 393.5,370.5 393.5,375.5 393.5,380.5C 392.512,375.36 392.179,370.026 392.5,364.5C 394.099,364.232 395.432,364.566 396.5,365.5 Z"/></g>
<g><path style="opacity:1" fill="#484949" d="M 393.5,380.5 C 393.5,375.5 393.5,370.5 393.5,365.5C 394.5,365.5 395.5,365.5 396.5,365.5C 396.435,365.938 396.601,366.272 397,366.5C 400.374,363.595 403.374,363.928 406,367.5C 406.499,371.821 406.666,376.154 406.5,380.5C 405.5,380.5 404.5,380.5 403.5,380.5C 403.665,377.15 403.498,373.817 403,370.5C 401,367.833 399,367.833 397,370.5C 396.502,373.817 396.335,377.15 396.5,380.5C 395.5,380.5 394.5,380.5 393.5,380.5 Z"/></g>
<g><path style="opacity:1" fill="#4e5050" d="M 414.5,364.5 C 417.272,364.22 419.772,364.887 422,366.5C 423.356,365.62 424.856,365.286 426.5,365.5C 426.87,371.925 426.37,378.258 425,384.5C 421.146,388.671 416.646,389.504 411.5,387C 410.549,386.282 410.383,385.449 411,384.5C 414.058,384.237 417.225,384.07 420.5,384C 422.325,382.534 422.825,380.701 422,378.5C 418.057,381.366 414.39,381.032 411,377.5C 408.343,372.084 409.51,367.75 414.5,364.5 Z"/></g>
<g><path style="opacity:1" fill="#4b4d4d" d="M 437.5,365.5 C 438.833,365.5 440.167,365.5 441.5,365.5C 442.224,368.843 443.057,372.176 444,375.5C 445.15,372.232 445.984,368.899 446.5,365.5C 448.467,365.261 450.301,365.594 452,366.5C 454.017,377.027 455.85,377.027 457.5,366.5C 458.833,365.167 460.167,365.167 461.5,366.5C 459.637,370.755 457.97,375.088 456.5,379.5C 455.311,380.429 453.978,380.762 452.5,380.5C 450.042,367.355 448.042,367.355 446.5,380.5C 444.833,380.5 443.167,380.5 441.5,380.5C 440.167,375.5 438.833,370.5 437.5,365.5 Z"/></g>
<g><path style="opacity:1" fill="#4c4d4e" d="M 477.5,369.5 C 477.5,370.833 477.5,372.167 477.5,373.5C 473.629,373.185 469.962,373.518 466.5,374.5C 466.953,375.458 467.619,376.292 468.5,377C 471.2,377.253 473.867,377.253 476.5,377C 477.345,378.558 476.679,379.558 474.5,380C 465.833,381.663 462,378.163 463,369.5C 468.147,362.936 472.981,362.936 477.5,369.5 Z"/></g>
<g><path style="opacity:1" fill="#4e4f50" d="M 487.5,364.5 C 490.785,364.269 493.285,365.603 495,368.5C 495.499,372.486 495.666,376.486 495.5,380.5C 494.167,380.5 492.833,380.5 491.5,380.5C 491.665,376.818 491.499,373.152 491,369.5C 488.733,368.065 486.733,368.398 485,370.5C 484.502,373.817 484.335,377.15 484.5,380.5C 483.5,380.5 482.5,380.5 481.5,380.5C 481.5,375.5 481.5,370.5 481.5,365.5C 482.822,365.33 483.989,365.663 485,366.5C 485.995,365.934 486.828,365.267 487.5,364.5 Z"/></g>
<g><path style="opacity:1" fill="#4c4d4e" d="M 517.5,365.5 C 518.978,365.238 520.311,365.571 521.5,366.5C 523.59,375.746 525.423,375.746 527,366.5C 528.699,365.594 530.533,365.261 532.5,365.5C 534.171,378.821 535.837,378.821 537.5,365.5C 538.833,365.5 540.167,365.5 541.5,365.5C 540.167,370.5 538.833,375.5 537.5,380.5C 535.856,380.714 534.356,380.38 533,379.5C 530.449,367.804 528.282,368.137 526.5,380.5C 525.022,380.762 523.689,380.429 522.5,379.5C 520.432,374.962 518.765,370.295 517.5,365.5 Z"/></g>
<g><path style="opacity:1" fill="#4e5051" d="M 550.5,364.5 C 551.5,364.5 552.5,364.5 553.5,364.5C 553.5,365.833 553.5,367.167 553.5,368.5C 551.278,368.178 549.444,368.845 548,370.5C 547.502,373.817 547.335,377.15 547.5,380.5C 546.167,380.5 544.833,380.5 543.5,380.5C 543.5,375.5 543.5,370.5 543.5,365.5C 545.262,365.357 546.929,365.691 548.5,366.5C 549.522,366.145 550.189,365.478 550.5,364.5 Z"/></g>
<g><path style="opacity:1" fill="#4d4f50" d="M 559.5,364.5 C 569.743,364.817 572.743,369.65 568.5,379C 558.921,382.736 554.421,379.569 555,369.5C 556.025,367.313 557.525,365.646 559.5,364.5 Z"/></g>
<g><path style="opacity:1" fill="#4f5152" d="M 580.5,364.5 C 583.325,364.081 585.491,365.081 587,367.5C 587.499,371.821 587.666,376.154 587.5,380.5C 586.167,380.5 584.833,380.5 583.5,380.5C 583.665,376.818 583.499,373.152 583,369.5C 581.333,368.167 579.667,368.167 578,369.5C 577.501,373.152 577.335,376.818 577.5,380.5C 576.167,380.5 574.833,380.5 573.5,380.5C 573.5,375.5 573.5,370.5 573.5,365.5C 575.144,365.286 576.644,365.62 578,366.5C 578.995,365.934 579.828,365.267 580.5,364.5 Z"/></g>
<g><path style="opacity:1" fill="#4f5151" d="M 595.5,364.5 C 598.272,364.22 600.772,364.887 603,366.5C 604.356,365.62 605.856,365.286 607.5,365.5C 607.87,371.925 607.37,378.258 606,384.5C 602.146,388.671 597.646,389.504 592.5,387C 591.549,386.282 591.383,385.449 592,384.5C 595.058,384.237 598.225,384.07 601.5,384C 603.325,382.534 603.825,380.701 603,378.5C 599.057,381.366 595.39,381.032 592,377.5C 589.348,372.039 590.514,367.706 595.5,364.5 Z"/></g>
<g><path style="opacity:1" fill="#dbe4ee" d="M 210.5,368.5 C 217.486,368.331 219.153,371.164 215.5,377C 208.808,377.116 207.141,374.282 210.5,368.5 Z"/></g>
<g><path style="opacity:1" fill="#dce5ef" d="M 230.5,368.5 C 235.459,367.628 237.625,369.628 237,374.5C 231.286,379.239 228.619,377.905 229,370.5C 229.717,369.956 230.217,369.289 230.5,368.5 Z"/></g>
<g><path style="opacity:1" fill="#dde5f0" d="M 297.5,368.5 C 304.225,368.204 305.891,370.871 302.5,376.5C 298.3,378.527 295.966,377.194 295.5,372.5C 295.752,370.927 296.418,369.594 297.5,368.5 Z"/></g>
<g><path style="opacity:1" fill="#d1d9e3" d="M 343.5,367.5 C 346.278,367.022 348.278,368.022 349.5,370.5C 346.833,371.833 344.167,371.833 341.5,370.5C 342.193,369.482 342.859,368.482 343.5,367.5 Z"/></g>
<g><path style="opacity:1" fill="#dae3ed" d="M 415.5,368.5 C 422.486,368.331 424.153,371.164 420.5,377C 413.808,377.116 412.141,374.282 415.5,368.5 Z"/></g>
<g><path style="opacity:1" fill="#d1d9e3" d="M 468.5,367.5 C 471.278,367.022 473.278,368.022 474.5,370.5C 471.833,371.833 469.167,371.833 466.5,370.5C 467.193,369.482 467.859,368.482 468.5,367.5 Z"/></g>
<g><path style="opacity:1" fill="#dfe7f2" d="M 560.5,368.5 C 566.067,367.753 567.9,370.087 566,375.5C 561.857,378.671 559.357,377.671 558.5,372.5C 558.803,370.886 559.47,369.552 560.5,368.5 Z"/></g>
<g><path style="opacity:1" fill="#dde6f0" d="M 596.5,368.5 C 603.225,368.204 604.891,370.871 601.5,376.5C 597.608,378.051 595.274,376.718 594.5,372.5C 594.752,370.927 595.418,369.594 596.5,368.5 Z"/></g>
<g><path style="opacity:1" fill="#808488" d="M 352.5,370.5 C 353.434,371.568 353.768,372.901 353.5,374.5C 349.5,374.5 345.5,374.5 341.5,374.5C 344.962,373.518 348.629,373.185 352.5,373.5C 352.5,372.5 352.5,371.5 352.5,370.5 Z"/></g>
<g><path style="opacity:1" fill="#7d8286" d="M 477.5,369.5 C 478.451,370.919 478.784,372.585 478.5,374.5C 474.5,374.5 470.5,374.5 466.5,374.5C 469.962,373.518 473.629,373.185 477.5,373.5C 477.5,372.167 477.5,370.833 477.5,369.5 Z"/></g>
<g><path style="opacity:1" fill="#535556" d="M 258.5,375.5 C 262.161,375.35 263.161,376.85 261.5,380C 257.707,380.487 256.707,378.987 258.5,375.5 Z"/></g>
<g><path style="opacity:1" fill="#545657" d="M 612.5,375.5 C 615.084,376.048 616.084,377.715 615.5,380.5C 610.516,380.856 609.516,379.189 612.5,375.5 Z"/></g>
</svg>
