<svg width="20" height="18" viewBox="0 0 20 18" fill="none" xmlns="http://www.w3.org/2000/svg">
<path d="M19.314 15.594C18.928 16.684 17.396 17.588 16.174 17.852C15.338 18.03 14.246 18.172 10.57 16.648C5.86799 14.7 2.83999 9.92199 2.60399 9.61199C2.37799 9.30199 0.703995 7.08199 0.703995 4.78599C0.703995 2.48999 1.86999 1.37199 2.33999 0.891994C2.72599 0.497994 3.36399 0.317993 3.97599 0.317993C4.17399 0.317993 4.35199 0.327993 4.51199 0.335993C4.98199 0.355993 5.21799 0.383994 5.52799 1.12599C5.91399 2.05599 6.85399 4.35199 6.96599 4.58799C7.07999 4.82399 7.19399 5.14399 7.034 5.45399C6.884 5.77399 6.75199 5.91599 6.51599 6.18799C6.27999 6.45999 6.05599 6.66799 5.81999 6.95999C5.60399 7.21399 5.35999 7.48599 5.63199 7.95599C5.90399 8.41599 6.84399 9.94999 8.22799 11.182C10.014 12.772 11.462 13.28 11.98 13.496C12.366 13.656 12.826 13.618 13.108 13.318C13.466 12.932 13.908 12.292 14.358 11.662C14.678 11.21 15.082 11.154 15.506 11.314C15.938 11.464 18.224 12.594 18.694 12.828C19.164 13.064 19.474 13.176 19.588 13.374C19.7 13.572 19.7 14.502 19.314 15.594Z" fill="#01160F"/>
</svg>
