<svg width="160" height="159" viewBox="0 0 160 159" fill="none" xmlns="http://www.w3.org/2000/svg">
<g id="Group 1000004856">
<path id="Vector" d="M154.608 6.14488C154.267 5.36834 153.645 4.74711 152.9 4.43649C152.496 4.25012 112.737 -12.461 80.0295 20.2158C73.7862 26.4591 67.7602 33.8207 62.2313 41.5861L54.6833 39.8467C43.2837 37.2064 31.5425 40.5611 23.2491 48.8234L2.65525 69.4483C-2.81159 74.9152 0.698369 84.2026 8.30845 84.7927L37.3199 87.1224C36.0464 90.5081 34.9593 93.8316 34.338 96.037C33.7789 97.9939 33.8721 100.013 34.4623 101.877C29.2129 103.305 24.4294 105.915 21.727 108.617C15.7632 114.55 10.4517 140.548 9.45772 145.704C9.02286 148.189 11.2282 150.084 13.3404 149.587C18.4966 148.562 44.4951 143.251 50.4279 137.318C53.2545 134.491 55.8015 129.646 57.1993 124.583C59.1873 125.204 61.2062 125.204 63.0389 124.676H63.0699C65.2753 124.055 68.5057 123.03 71.9535 121.694L74.2832 150.705C74.8733 158.315 84.1918 161.794 89.6276 156.359L110.252 135.734C118.515 127.471 121.901 115.699 119.229 104.299L117.49 96.7514C125.255 91.2225 132.617 85.1965 138.86 78.9532C171.537 46.3075 154.795 6.54868 154.608 6.14488ZM7.3766 74.1386L27.9704 53.5137C34.6486 46.8355 44.0913 44.1642 53.1924 46.3075L58.1933 47.4567C50.7696 58.6078 44.4951 70.287 39.9602 80.6616L8.83649 78.1766C6.81749 77.9902 5.94777 75.5364 7.3766 74.1386ZM45.7376 132.659C42.8489 135.547 28.5295 139.554 16.9746 142.101C19.4906 130.515 23.4975 116.227 26.4173 113.338C28.9333 110.791 33.841 108.586 38.6245 107.716L51.3597 120.451C51.3287 120.576 51.3287 120.7 51.2976 120.855C50.3658 125.421 48.0983 130.298 45.7376 132.659ZM57.6652 117.345L41.6996 101.38C40.7678 100.448 40.395 99.05 40.7367 97.8075C41.0163 96.8446 41.5443 95.043 42.2276 93.024L66.0208 116.817C64.592 117.314 62.6972 117.904 61.2373 118.308C59.9949 118.681 58.6281 118.308 57.6652 117.345ZM112.737 105.852C114.85 115.016 112.178 124.427 105.531 131.074L84.9062 151.699C83.4774 153.128 81.0546 152.227 80.8682 150.239L78.3833 119.116C88.7578 114.612 100.437 108.306 111.588 100.883L112.737 105.852ZM72.8233 114.239L44.7747 86.1905C52.6954 66.8392 67.8224 41.7725 84.6888 24.9061C103.947 5.64789 129.262 2.75917 148.986 10.0276C151.316 16.5505 160.572 47.8916 134.108 74.356C117.241 91.2225 92.1746 106.349 72.8233 114.239Z" fill="#00E89F"/>
<path id="Vector_2" d="M97.1128 29.6272C88.1981 38.5419 88.1981 52.9855 97.1128 61.9313C106.027 70.8459 120.471 70.8459 129.417 61.9313C138.331 53.0166 138.331 38.5419 129.417 29.6272C120.471 20.7126 106.027 20.7126 97.1128 29.6272ZM124.726 57.241C118.39 63.5775 108.14 63.5775 101.803 57.241C95.4665 50.9044 95.4665 40.6541 101.803 34.3175C108.14 27.981 118.39 27.981 124.726 34.3175C131.032 40.6541 131.032 50.9355 124.726 57.241Z" fill="#00E89F"/>
</g>
</svg>
