<svg width="31" height="31" viewBox="0 0 31 31" fill="none" xmlns="http://www.w3.org/2000/svg">
<g id="search-normal">
<path id="Vector" d="M14.8546 28.0938C7.55666 28.0938 1.61499 22.1521 1.61499 14.8542C1.61499 7.55629 7.55666 1.61462 14.8546 1.61462C22.1525 1.61462 28.0942 7.55629 28.0942 14.8542C28.0942 22.1521 22.1525 28.0938 14.8546 28.0938ZM14.8546 3.55212C8.61582 3.55212 3.55249 8.62837 3.55249 14.8542C3.55249 21.08 8.61582 26.1563 14.8546 26.1563C21.0933 26.1563 26.1567 21.08 26.1567 14.8542C26.1567 8.62837 21.0933 3.55212 14.8546 3.55212Z" fill="#01160F"/>
<path id="Vector_2" d="M28.417 29.3854C28.1716 29.3854 27.9262 29.295 27.7324 29.1012L25.1491 26.5179C24.7745 26.1433 24.7745 25.5233 25.1491 25.1487C25.5237 24.7742 26.1437 24.7742 26.5183 25.1487L29.1016 27.7321C29.4762 28.1067 29.4762 28.7267 29.1016 29.1012C28.9079 29.295 28.6624 29.3854 28.417 29.3854Z" fill="#01160F"/>
</g>
</svg>
