<svg width="244" height="49" viewBox="0 0 244 49" fill="none" xmlns="http://www.w3.org/2000/svg">
<g id="Group 1000004066">
<path id="Star 2" d="M23.4489 2.92705C23.7483 2.00574 25.0517 2.00574 25.3511 2.92705L29.6536 16.169C29.7875 16.581 30.1715 16.86 30.6047 16.86H44.5281C45.4968 16.86 45.8996 18.0996 45.1159 18.669L33.8516 26.853C33.5011 27.1076 33.3545 27.559 33.4883 27.971L37.7909 41.213C38.0903 42.1343 37.0358 42.9004 36.2521 42.331L24.9878 34.147C24.6373 33.8924 24.1627 33.8924 23.8122 34.147L12.5479 42.331C11.7642 42.9004 10.7097 42.1343 11.0091 41.213L15.3117 27.971C15.4455 27.559 15.2989 27.1076 14.9484 26.853L3.68412 18.669C2.9004 18.0996 3.30318 16.86 4.2719 16.86H18.1953C18.6285 16.86 19.0125 16.581 19.1464 16.169L23.4489 2.92705Z" fill="#FFC654"/>
<path id="Star 3" d="M72.249 2.92705C72.5483 2.00574 73.8518 2.00574 74.1511 2.92705L78.4537 16.169C78.5876 16.581 78.9715 16.86 79.4047 16.86H93.3281C94.2969 16.86 94.6996 18.0996 93.9159 18.669L82.6516 26.853C82.3012 27.1076 82.1545 27.559 82.2884 27.971L86.591 41.213C86.8903 42.1343 85.8358 42.9004 85.0521 42.331L73.7878 34.147C73.4373 33.8924 72.9628 33.8924 72.6123 34.147L61.348 42.331C60.5643 42.9004 59.5098 42.1343 59.8091 41.213L64.1117 27.971C64.2456 27.559 64.0989 27.1076 63.7484 26.853L52.4842 18.669C51.7005 18.0996 52.1032 16.86 53.072 16.86H66.9954C67.4286 16.86 67.8125 16.581 67.9464 16.169L72.249 2.92705Z" fill="#FFC654"/>
<path id="Star 4" d="M121.049 2.92705C121.348 2.00574 122.652 2.00574 122.951 2.92705L127.254 16.169C127.388 16.581 127.772 16.86 128.205 16.86H142.128C143.097 16.86 143.5 18.0996 142.716 18.669L131.452 26.853C131.101 27.1076 130.955 27.559 131.088 27.971L135.391 41.213C135.69 42.1343 134.636 42.9004 133.852 42.331L122.588 34.147C122.237 33.8924 121.763 33.8924 121.412 34.147L110.148 42.331C109.364 42.9004 108.31 42.1343 108.609 41.213L112.912 27.971C113.046 27.559 112.899 27.1076 112.548 26.853L101.284 18.669C100.501 18.0996 100.903 16.86 101.872 16.86H115.795C116.229 16.86 116.613 16.581 116.746 16.169L121.049 2.92705Z" fill="#FFC654"/>
<path id="Star 5" d="M169.849 2.92705C170.148 2.00574 171.452 2.00574 171.751 2.92705L176.054 16.169C176.187 16.581 176.571 16.86 177.005 16.86H190.928C191.897 16.86 192.299 18.0996 191.516 18.669L180.252 26.853C179.901 27.1076 179.754 27.559 179.888 27.971L184.191 41.213C184.49 42.1343 183.436 42.9004 182.652 42.331L171.388 34.147C171.037 33.8924 170.563 33.8924 170.212 34.147L158.948 42.331C158.164 42.9004 157.11 42.1343 157.409 41.213L161.712 27.971C161.845 27.559 161.699 27.1076 161.348 26.853L150.084 18.669C149.3 18.0996 149.703 16.86 150.672 16.86H164.595C165.028 16.86 165.412 16.581 165.546 16.169L169.849 2.92705Z" fill="#FFC654"/>
<path id="Star 6" d="M218.649 2.92705C218.948 2.00574 220.252 2.00574 220.551 2.92705L224.854 16.169C224.987 16.581 225.371 16.86 225.805 16.86H239.728C240.697 16.86 241.1 18.0996 240.316 18.669L229.052 26.853C228.701 27.1076 228.554 27.559 228.688 27.971L232.991 41.213C233.29 42.1343 232.236 42.9004 231.452 42.331L220.188 34.147C219.837 33.8924 219.363 33.8924 219.012 34.147L207.748 42.331C206.964 42.9004 205.91 42.1343 206.209 41.213L210.512 27.971C210.645 27.559 210.499 27.1076 210.148 26.853L198.884 18.669C198.1 18.0996 198.503 16.86 199.472 16.86H213.395C213.828 16.86 214.212 16.581 214.346 16.169L218.649 2.92705Z" fill="#FFC654"/>
</g>
</svg>
