<svg width="35" height="18" viewBox="0 0 35 18" fill="none" xmlns="http://www.w3.org/2000/svg">
<mask id="mask0_200_65" style="mask-type:alpha" maskUnits="userSpaceOnUse" x="0" y="0" width="35" height="18">
<path d="M33.1812 3.65121L21.1206 0.286721C19.1346 -0.264407 17.0176 -0.0150514 15.2062 0.983333L9.90072 3.94764L2.17439 5.42979C1.60021 5.42978 1.04933 5.66197 0.641967 6.07571C0.234604 6.48945 0.00382787 7.05113 0 7.6382L0 12.0847C0 12.6743 0.229087 13.2398 0.636864 13.6567C1.04464 14.0737 1.59771 14.3079 2.17439 14.3079H3.62398C3.76646 15.1675 4.20199 15.9478 4.85339 16.5105C5.5048 17.0731 6.33 17.3818 7.18273 17.3818C8.03547 17.3818 8.86067 17.0731 9.51207 16.5105C10.1635 15.9478 10.599 15.1675 10.7415 14.3079H23.9183C24.0608 15.1675 24.4963 15.9478 25.1477 16.5105C25.7991 17.0731 26.6243 17.3818 27.477 17.3818C28.3298 17.3818 29.155 17.0731 29.8064 16.5105C30.4578 15.9478 30.8933 15.1675 31.0358 14.3079H32.4854C33.0621 14.3079 33.6151 14.0737 34.0229 13.6567C34.4307 13.2398 34.6598 12.6743 34.6598 12.0847V5.72622C34.6534 5.26648 34.5078 4.82006 34.243 4.44844C33.9782 4.07683 33.6072 3.79829 33.1812 3.65121ZM26.0927 3.22138V3.93282H25.078L24.5126 2.76192L26.0927 3.22138ZM15.9455 2.30245C17.34 1.54159 18.9562 1.32056 20.4972 1.67994H20.7872H21.0336L22.6861 2.13941L23.4979 3.81424H13.0463L15.9455 2.30245ZM7.24797 15.8938C6.81791 15.8938 6.39752 15.7634 6.03994 15.5191C5.68236 15.2748 5.40367 14.9276 5.23909 14.5214C5.07452 14.1151 5.03146 13.6681 5.11536 13.2368C5.19926 12.8056 5.40635 12.4094 5.71044 12.0985C6.01453 11.7876 6.40197 11.5758 6.82376 11.49C7.24555 11.4043 7.68275 11.4483 8.08007 11.6166C8.47739 11.7848 8.81698 12.0698 9.05591 12.4354C9.29483 12.801 9.42236 13.2308 9.42236 13.6706C9.42236 14.2602 9.19327 14.8257 8.78549 15.2426C8.37772 15.6596 7.82465 15.8938 7.24797 15.8938ZM27.5423 15.8938C27.1122 15.8938 26.6918 15.7634 26.3342 15.5191C25.9767 15.2748 25.698 14.9276 25.5334 14.5214C25.3688 14.1151 25.3258 13.6681 25.4097 13.2368C25.4936 12.8056 25.7007 12.4094 26.0047 12.0985C26.3088 11.7876 26.6963 11.5758 27.1181 11.49C27.5399 11.4043 27.9771 11.4483 28.3744 11.6166C28.7717 11.7848 29.1113 12.0698 29.3502 12.4354C29.5891 12.801 29.7167 13.2308 29.7167 13.6706C29.7167 14.2602 29.4876 14.8257 29.0798 15.2426C28.672 15.6596 28.119 15.8938 27.5423 15.8938ZM33.3406 8.37927H32.6158C32.4236 8.37927 32.2393 8.45735 32.1033 8.59633C31.9674 8.73531 31.8911 8.9238 31.8911 9.12035C31.8911 9.3169 31.9674 9.50539 32.1033 9.64437C32.2393 9.78335 32.4236 9.86143 32.6158 9.86143H33.3406V12.0847C33.3406 12.2812 33.2643 12.4697 33.1284 12.6087C32.9924 12.7477 32.8081 12.8257 32.6158 12.8257H31.0648C30.8798 12.0143 30.4318 11.2908 29.7935 10.7728C29.1553 10.2548 28.3644 9.97292 27.5495 9.97292C26.7347 9.97292 25.9438 10.2548 25.3055 10.7728C24.6673 11.2908 24.2192 12.0143 24.0343 12.8257H10.7705C10.5855 12.0143 10.1375 11.2908 9.49921 10.7728C8.86096 10.2548 8.07007 9.97292 7.25521 9.97292C6.44036 9.97292 5.64947 10.2548 5.01122 10.7728C4.37297 11.2908 3.92492 12.0143 3.73995 12.8257H2.17439C1.98216 12.8257 1.79781 12.7477 1.66188 12.6087C1.52596 12.4697 1.44959 12.2812 1.44959 12.0847V9.86143H2.17439C2.36662 9.86143 2.55097 9.78335 2.6869 9.64437C2.82282 9.50539 2.89919 9.3169 2.89919 9.12035C2.89919 8.9238 2.82282 8.73531 2.6869 8.59633C2.55097 8.45735 2.36662 8.37927 2.17439 8.37927H1.44959V7.6382C1.45499 7.53035 1.48169 7.42473 1.52806 7.3277C1.57444 7.23067 1.63954 7.14425 1.71945 7.07362C1.79935 7.003 1.89241 6.94964 1.99302 6.91676C2.09362 6.88388 2.1997 6.87216 2.30485 6.8823L10.1472 5.41497H26.8175C27.0097 5.41497 27.1941 5.33689 27.33 5.19791C27.4659 5.05893 27.5423 4.87044 27.5423 4.67389V3.62156L32.8043 5.10372C32.9442 5.14094 33.0701 5.22011 33.1656 5.33104C33.2612 5.44197 33.3222 5.5796 33.3406 5.72622V8.37927ZM22.4687 9.86143H12.3215C12.1293 9.86143 11.945 9.9395 11.809 10.0785C11.6731 10.2175 11.5967 10.406 11.5967 10.6025C11.5967 10.799 11.6731 10.9875 11.809 11.1265C11.945 11.2655 12.1293 11.3436 12.3215 11.3436H22.4687C22.6609 11.3436 22.8453 11.2655 22.9812 11.1265C23.1171 10.9875 23.1935 10.799 23.1935 10.6025C23.1935 10.406 23.1171 10.2175 22.9812 10.0785C22.8453 9.9395 22.6609 9.86143 22.4687 9.86143Z" fill="black"/>
</mask>
<g mask="url(#mask0_200_65)">
<rect x="-3.00195" y="-12.873" width="40.6667" height="33.3333" fill="#00E89F"/>
</g>
</svg>
