<svg width="133" height="131" viewBox="0 0 133 131" fill="none" xmlns="http://www.w3.org/2000/svg">
<g id="wallet">
<path id="Vector" d="M119.285 29.134L87.9104 2.4451C86.1504 0.939871 83.93 0.079285 81.6153 0.00521465C79.3006 -0.0688557 77.0297 0.648012 75.1771 2.03764L61.578 12.2242L53.0213 3.66749C51.1127 1.77023 48.5309 0.705303 45.8397 0.705303C43.1485 0.705303 40.5667 1.77023 38.6581 3.66749L13.1916 29.3887C9.55445 29.8904 6.21951 31.685 3.79709 34.4441C1.37467 37.2032 0.0267568 40.7424 0 44.4139V115.72C0 119.773 1.60984 123.659 4.47538 126.525C7.34092 129.39 11.2274 131 15.2799 131H117.146C121.198 131 125.085 129.39 127.95 126.525C130.816 123.659 132.426 119.773 132.426 115.72V44.4139C132.462 40.7062 131.149 37.1117 128.732 34.3004C126.314 31.4892 122.956 29.6529 119.285 29.134ZM122.239 90.2536H112.053C109.351 90.2536 106.76 89.1804 104.85 87.27C102.939 85.3596 101.866 82.7687 101.866 80.067C101.866 77.3653 102.939 74.7743 104.85 72.864C106.76 70.9536 109.351 69.8804 112.053 69.8804H122.239V90.2536ZM81.4928 10.1869L103.394 29.134H78.4877L68.8614 19.5077L81.4928 10.1869ZM45.8397 10.849L64.1246 29.134H27.5548L45.8397 10.849ZM117.146 120.813H15.2799C13.9291 120.813 12.6336 120.277 11.6784 119.322C10.7232 118.366 10.1866 117.071 10.1866 115.72V44.4139C10.1866 43.0631 10.7232 41.7676 11.6784 40.8124C12.6336 39.8572 13.9291 39.3206 15.2799 39.3206H117.146C118.497 39.3206 119.792 39.8572 120.747 40.8124C121.703 41.7676 122.239 43.0631 122.239 44.4139V59.6938H112.053C106.649 59.6938 101.467 61.8403 97.6466 65.661C93.8259 69.4817 91.6794 74.6637 91.6794 80.067C91.6794 85.4703 93.8259 90.6523 97.6466 94.473C101.467 98.2937 106.649 100.44 112.053 100.44H122.239V115.72C122.239 117.071 121.703 118.366 120.747 119.322C119.792 120.277 118.497 120.813 117.146 120.813Z" fill="#00E89F"/>
<path id="Vector_2" d="M108.436 76.4506C107.505 77.4267 106.978 78.7183 106.959 80.0669C106.959 81.4177 107.495 82.7132 108.451 83.6684C109.406 84.6236 110.701 85.1602 112.052 85.1602C113.403 85.1602 114.698 84.6236 115.654 83.6684C116.609 82.7132 117.145 81.4177 117.145 80.0669C117.151 79.0552 116.856 78.0647 116.296 77.2217C115.737 76.3786 114.94 75.7212 114.005 75.3333C113.071 74.9454 112.042 74.8444 111.05 75.0434C110.058 75.2424 109.148 75.7323 108.436 76.4506Z" fill="#00E89F"/>
</g>
</svg>
