<svg width="27" height="26" viewBox="0 0 27 26" fill="none" xmlns="http://www.w3.org/2000/svg">
<path d="M6.69166 9.42433C6.68976 10.7451 6.94802 12.0533 7.4517 13.2742C7.95538 14.4951 8.6946 15.6049 9.62717 16.5402C10.5597 17.4754 11.6674 18.2178 12.8869 18.725C14.1064 19.2322 15.4138 19.4942 16.7346 19.4961H17.0594C17.7036 19.4645 18.3108 19.1857 18.7546 18.7177C19.1984 18.2497 19.4446 17.6285 19.442 16.9836C19.4423 16.8213 19.4278 16.6594 19.3987 16.4998C19.3626 16.3376 19.3143 16.1783 19.2543 16.0233L15.0234 15.3519C14.7145 15.715 14.5143 16.158 14.4458 16.6298C13.3302 16.2724 12.3131 15.6604 11.4748 14.8421C10.6365 14.0239 10 13.0218 9.61572 11.9152C10.0926 11.8426 10.5387 11.6346 10.9009 11.3159L10.1789 7.12118C9.99251 7.03613 9.79595 6.97546 9.59406 6.94069C9.4571 6.92993 9.3195 6.92993 9.18253 6.94069C8.5249 6.94631 7.89569 7.20956 7.42998 7.67392C6.96427 8.13828 6.6992 8.76672 6.69166 9.42433Z" fill="#444444"/>
<path d="M1.43571 25.9946C1.20841 25.9933 0.984623 25.9384 0.782566 25.8343C0.580509 25.7302 0.405886 25.5798 0.272904 25.3955C0.139923 25.2111 0.0523393 24.998 0.0172798 24.7734C-0.0177796 24.5488 0.000675203 24.3191 0.0711432 24.103L1.67396 19.2152C0.20304 16.5163 -0.263729 13.3835 0.356557 10.3732C0.976843 7.36277 2.64403 4.66967 5.06202 2.77217C7.48001 0.874662 10.4923 -0.104414 13.5638 0.00882957C16.6353 0.122073 19.5673 1.32031 21.839 3.39071C24.1107 5.46112 25.5751 8.26968 25.972 11.3176C26.3689 14.3655 25.6727 17.4554 24.0071 20.0385C22.3414 22.6217 19.8141 24.5309 16.874 25.427C13.9339 26.3232 10.7714 26.1483 7.94806 24.9333L1.67396 25.9946C1.5947 26.0018 1.51496 26.0018 1.43571 25.9946ZM8.13578 21.9876C8.35092 21.9889 8.56306 22.0382 8.75669 22.132C10.9525 23.17 13.4486 23.3827 15.7883 22.7312C18.1281 22.0796 20.155 20.6073 21.4982 18.5838C22.8414 16.5602 23.411 14.1207 23.1029 11.7115C22.7948 9.30237 21.6295 7.08471 19.8203 5.46432C18.0111 3.84394 15.6789 2.92918 13.2505 2.88744C10.822 2.84569 8.45978 3.67974 6.59592 5.23698C4.73207 6.79422 3.49125 8.97051 3.10051 11.3677C2.70976 13.7648 3.19523 16.2225 4.46807 18.291C4.57824 18.4694 4.64824 18.6697 4.67317 18.878C4.69811 19.0862 4.67739 19.2973 4.61246 19.4967L3.55114 22.7312L7.88308 22.0093L8.13578 21.9876Z" fill="#444444"/>
</svg>
