<svg width="32" height="32" viewBox="0 0 32 32" fill="none" xmlns="http://www.w3.org/2000/svg">
<g clip-path="url(#clip0_43_570)">
<path d="M16.004 0H15.996C7.174 0 0 7.176 0 16C0 19.5 1.128 22.744 3.046 25.378L1.052 31.322L7.202 29.356C9.732 31.032 12.75 32 16.004 32C24.826 32 32 24.822 32 16C32 7.178 24.826 0 16.004 0Z" fill="#00E89F"/>
<path d="M25.314 22.594C24.928 23.684 23.396 24.588 22.174 24.852C21.338 25.03 20.246 25.172 16.57 23.648C11.868 21.7 8.83999 16.922 8.60399 16.612C8.37799 16.302 6.70399 14.082 6.70399 11.786C6.70399 9.48999 7.86999 8.37199 8.33999 7.89199C8.72599 7.49799 9.36399 7.31799 9.97599 7.31799C10.174 7.31799 10.352 7.32799 10.512 7.33599C10.982 7.35599 11.218 7.38399 11.528 8.12599C11.914 9.05599 12.854 11.352 12.966 11.588C13.08 11.824 13.194 12.144 13.034 12.454C12.884 12.774 12.752 12.916 12.516 13.188C12.28 13.46 12.056 13.668 11.82 13.96C11.604 14.214 11.36 14.486 11.632 14.956C11.904 15.416 12.844 16.95 14.228 18.182C16.014 19.772 17.462 20.28 17.98 20.496C18.366 20.656 18.826 20.618 19.108 20.318C19.466 19.932 19.908 19.292 20.358 18.662C20.678 18.21 21.082 18.154 21.506 18.314C21.938 18.464 24.224 19.594 24.694 19.828C25.164 20.064 25.474 20.176 25.588 20.374C25.7 20.572 25.7 21.502 25.314 22.594Z" fill="#01160F"/>
</g>
<defs>
<clipPath id="clip0_43_570">
<rect width="32" height="32" fill="white"/>
</clipPath>
</defs>
</svg>
